<svg width="191" height="210" viewBox="0 0 191 210" fill="none" xmlns="http://www.w3.org/2000/svg">
<g filter="url(#filter0_b_446_391)">
<path d="M95.4869 10L177.974 57.5V152.5L95.4869 200L13.0002 152.5V57.5L95.4869 10Z" fill="#361963"/>
<path d="M13.5002 57.789L95.4869 10.577L177.474 57.789V152.211L95.4869 199.423L13.5002 152.211V57.789Z" stroke="url(#paint0_linear_446_391)"/>
</g>
<g filter="url(#filter1_b_446_391)">
<path fill-rule="evenodd" clip-rule="evenodd" d="M185.656 57.0432V156.922L95.4869 208.846L94.9855 208.557V209.711L95.4869 210L186.656 157.5V56.3782L185.656 57.0432ZM95.4869 1.15395V0L4.31739 52.5V157.288L5.31739 156.624V53.0781L95.4869 1.15395Z" fill="url(#paint1_linear_446_391)"/>
</g>
<defs>
<filter id="filter0_b_446_391" x="9.00024" y="6" width="172.973" height="198" filterUnits="userSpaceOnUse" color-interpolation-filters="sRGB">
<feFlood flood-opacity="0" result="BackgroundImageFix"/>
<feGaussianBlur in="BackgroundImage" stdDeviation="2"/>
<feComposite in2="SourceAlpha" operator="in" result="effect1_backgroundBlur_446_391"/>
<feBlend mode="normal" in="SourceGraphic" in2="effect1_backgroundBlur_446_391" result="shape"/>
</filter>
<filter id="filter1_b_446_391" x="0.317383" y="-4" width="190.339" height="218" filterUnits="userSpaceOnUse" color-interpolation-filters="sRGB">
<feFlood flood-opacity="0" result="BackgroundImageFix"/>
<feGaussianBlur in="BackgroundImage" stdDeviation="2"/>
<feComposite in2="SourceAlpha" operator="in" result="effect1_backgroundBlur_446_391"/>
<feBlend mode="normal" in="SourceGraphic" in2="effect1_backgroundBlur_446_391" result="shape"/>
</filter>
<linearGradient id="paint0_linear_446_391" x1="95.4869" y1="10" x2="95.4869" y2="200" gradientUnits="userSpaceOnUse">
<stop stop-color="#11D9EB"/>
<stop offset="1" stop-color="#D533CE"/>
</linearGradient>
<linearGradient id="paint1_linear_446_391" x1="95.4869" y1="0" x2="95.4869" y2="210" gradientUnits="userSpaceOnUse">
<stop stop-color="#11D9EB"/>
<stop offset="1" stop-color="#D533CE"/>
</linearGradient>
</defs>
</svg>
