<svg
            width="1074"
            height="149"
            viewBox="0 0 1074 149"
            fill="none"
            xmlns="http://www.w3.org/2000/svg"
          >
            <path
              d="M13.542 125L29.142 36.56H87.342L102.462 54.92L93.342 106.64L71.742 125H13.542ZM39.222 107.96H64.782L72.342 101.6L79.662 59.96L74.382 53.6H48.822L39.222 107.96ZM98.6389 125L109.679 62.24H132.359L130.679 72.08L143.039 62.36H155.519L152.039 82.4H133.799L128.039 86.84L121.319 125H98.6389ZM161.654 55.28L164.654 38.48H187.574L184.574 55.28H161.654ZM149.534 125L160.574 62.24H183.254L172.214 125H149.534ZM198.54 125L187.38 62.36H212.22L215.22 108.08H219.54L235.74 62.36H263.46L230.22 125H198.54ZM267.171 125L256.251 111.68L262.491 75.68L278.211 62.36H313.971L324.891 75.68L320.811 99.44H281.091L280.011 104.96L283.611 109.16H318.051L315.291 125H267.171ZM283.371 86.48H302.451L303.771 79.04L300.171 74.84H289.731L284.691 79.04L283.371 86.48ZM350.714 125L354.314 104.36L408.434 64.64L409.754 57.2L406.874 53.6H391.034L386.834 57.2L385.154 66.44H362.474L365.714 48.32L380.354 36.56H423.434L433.994 48.32L429.794 72.08L381.194 107.12H424.274L421.154 125H350.714ZM457.359 125L472.959 36.56H540.639L537.399 54.8H492.399L489.519 71.12H530.079L527.199 88.04H486.519L483.279 106.76H528.279L525.039 125H457.359ZM526.322 125L568.322 36.56H604.922L615.002 125H592.202L590.882 107.36H559.322L551.882 125H526.322ZM566.402 90.08H589.442L586.562 53.48H582.242L566.402 90.08ZM620.081 125L635.681 36.56H696.401L707.561 49.88L701.921 81.56L689.441 92.12L697.001 125H675.521L669.161 94.88H648.041L642.761 125H620.081ZM651.041 77.84H676.241L681.281 73.64L684.041 57.8L680.561 53.6H655.361L651.041 77.84ZM705.544 125L721.144 36.56H744.424L765.784 92L775.624 36.56H796.744L781.144 125H760.024L740.104 73.16H735.784L726.664 125H705.544ZM810.75 125L852.75 36.56H889.35L899.43 125H876.63L875.31 107.36H843.75L836.31 125H810.75ZM850.83 90.08H873.87L870.99 53.48H866.67L850.83 90.08ZM904.509 125L920.109 36.56H979.749L990.789 49.88L984.789 83.96L969.069 97.28H932.109L927.189 125H904.509ZM935.109 80.24H959.229L964.149 76.04L967.389 57.8L963.909 53.6H939.789L935.109 80.24ZM983.644 125L999.244 36.56H1058.88L1069.92 49.88L1063.92 83.96L1048.2 97.28H1011.24L1006.32 125H983.644ZM1014.24 80.24H1038.36L1043.28 76.04L1046.52 57.8L1043.04 53.6H1018.92L1014.24 80.24Z"
              fill="#2600FF"
            />
            <path
              d="M13.542 125L13.0496 124.913L12.9461 125.5H13.542V125ZM29.142 36.56V36.06H28.7225L28.6496 36.4731L29.142 36.56ZM87.342 36.56L87.728 36.2421L87.578 36.06H87.342V36.56ZM102.462 54.92L102.954 55.0068L102.994 54.78L102.848 54.6021L102.462 54.92ZM93.342 106.64L93.6658 107.021L93.8031 106.904L93.8344 106.727L93.342 106.64ZM71.742 125V125.5H71.9258L72.0658 125.381L71.742 125ZM39.222 107.96L38.7296 107.873L38.626 108.46H39.222V107.96ZM64.782 107.96V108.46H64.9644L65.1039 108.343L64.782 107.96ZM72.342 101.6L72.6639 101.983L72.803 101.866L72.8345 101.687L72.342 101.6ZM79.662 59.96L80.1545 60.0466L80.1945 59.8187L80.0467 59.6406L79.662 59.96ZM74.382 53.6L74.7667 53.2806L74.6168 53.1H74.382V53.6ZM48.822 53.6V53.1H48.4026L48.3296 53.513L48.822 53.6ZM14.0344 125.087L29.6344 36.6468L28.6496 36.4731L13.0496 124.913L14.0344 125.087ZM29.142 37.06H87.342V36.06H29.142V37.06ZM86.9561 36.8778L102.076 55.2378L102.848 54.6021L87.728 36.2421L86.9561 36.8778ZM101.97 54.8332L92.8496 106.553L93.8344 106.727L102.954 55.0068L101.97 54.8332ZM93.0182 106.259L71.4182 124.619L72.0658 125.381L93.6658 107.021L93.0182 106.259ZM71.742 124.5H13.542V125.5H71.742V124.5ZM39.222 108.46H64.782V107.46H39.222V108.46ZM65.1039 108.343L72.6639 101.983L72.0201 101.217L64.4601 107.577L65.1039 108.343ZM72.8345 101.687L80.1545 60.0466L79.1696 59.8734L71.8496 101.513L72.8345 101.687ZM80.0467 59.6406L74.7667 53.2806L73.9973 53.9194L79.2773 60.2794L80.0467 59.6406ZM74.382 53.1H48.822V54.1H74.382V53.1ZM48.3296 53.513L38.7296 107.873L39.7144 108.047L49.3144 53.687L48.3296 53.513ZM98.6389 125L98.1465 124.913L98.0433 125.5H98.6389V125ZM109.679 62.24V61.74H109.259L109.186 62.1534L109.679 62.24ZM132.359 62.24L132.852 62.3241L132.951 61.74H132.359V62.24ZM130.679 72.08L130.186 71.9958L129.968 73.2755L130.988 72.473L130.679 72.08ZM143.039 62.36V61.86H142.866L142.73 61.967L143.039 62.36ZM155.519 62.36L156.012 62.4455L156.113 61.86H155.519V62.36ZM152.039 82.4V82.9H152.46L152.532 82.4855L152.039 82.4ZM133.799 82.4V81.9H133.629L133.494 82.004L133.799 82.4ZM128.039 86.84L127.734 86.444L127.58 86.5623L127.546 86.7533L128.039 86.84ZM121.319 125V125.5H121.739L121.811 125.087L121.319 125ZM99.1313 125.087L110.171 62.3266L109.186 62.1534L98.1465 124.913L99.1313 125.087ZM109.679 62.74H132.359V61.74H109.679V62.74ZM131.866 62.1559L130.186 71.9958L131.172 72.1641L132.852 62.3241L131.866 62.1559ZM130.988 72.473L143.348 62.753L142.73 61.967L130.37 71.687L130.988 72.473ZM143.039 62.86H155.519V61.86H143.039V62.86ZM155.026 62.2745L151.546 82.3145L152.532 82.4855L156.012 62.4455L155.026 62.2745ZM152.039 81.9H133.799V82.9H152.039V81.9ZM133.494 82.004L127.734 86.444L128.344 87.236L134.104 82.796L133.494 82.004ZM127.546 86.7533L120.826 124.913L121.811 125.087L128.531 86.9267L127.546 86.7533ZM121.319 124.5H98.6389V125.5H121.319V124.5ZM161.654 55.28L161.162 55.1921L161.057 55.78H161.654V55.28ZM164.654 38.48V37.98H164.235L164.162 38.3921L164.654 38.48ZM187.574 38.48L188.066 38.5679L188.171 37.98H187.574V38.48ZM184.574 55.28V55.78H184.993L185.066 55.3679L184.574 55.28ZM149.534 125L149.041 124.913L148.938 125.5H149.534V125ZM160.574 62.24V61.74H160.154L160.081 62.1534L160.574 62.24ZM183.254 62.24L183.746 62.3266L183.85 61.74H183.254V62.24ZM172.214 125V125.5H172.634L172.706 125.087L172.214 125ZM162.146 55.3679L165.146 38.5679L164.162 38.3921L161.162 55.1921L162.146 55.3679ZM164.654 38.98H187.574V37.98H164.654V38.98ZM187.082 38.3921L184.082 55.1921L185.066 55.3679L188.066 38.5679L187.082 38.3921ZM184.574 54.78H161.654V55.78H184.574V54.78ZM150.026 125.087L161.066 62.3266L160.081 62.1534L149.041 124.913L150.026 125.087ZM160.574 62.74H183.254V61.74H160.574V62.74ZM182.761 62.1534L171.721 124.913L172.706 125.087L183.746 62.3266L182.761 62.1534ZM172.214 124.5H149.534V125.5H172.214V124.5ZM198.54 125L198.048 125.088L198.121 125.5H198.54V125ZM187.38 62.36V61.86H186.783L186.888 62.4477L187.38 62.36ZM212.22 62.36L212.719 62.3273L212.688 61.86H212.22V62.36ZM215.22 108.08L214.721 108.113L214.752 108.58H215.22V108.08ZM219.54 108.08V108.58H219.893L220.011 108.247L219.54 108.08ZM235.74 62.36V61.86H235.387L235.269 62.193L235.74 62.36ZM263.46 62.36L263.901 62.5944L264.291 61.86H263.46V62.36ZM230.22 125V125.5H230.521L230.661 125.234L230.22 125ZM199.032 124.912L187.872 62.2723L186.888 62.4477L198.048 125.088L199.032 124.912ZM187.38 62.86H212.22V61.86H187.38V62.86ZM211.721 62.3927L214.721 108.113L215.719 108.047L212.719 62.3273L211.721 62.3927ZM215.22 108.58H219.54V107.58H215.22V108.58ZM220.011 108.247L236.211 62.527L235.269 62.193L219.069 107.913L220.011 108.247ZM235.74 62.86H263.46V61.86H235.74V62.86ZM263.018 62.1256L229.778 124.766L230.661 125.234L263.901 62.5944L263.018 62.1256ZM230.22 124.5H198.54V125.5H230.22V124.5ZM267.171 125L266.785 125.317L266.935 125.5H267.171V125ZM256.251 111.68L255.759 111.595L255.72 111.82L255.865 111.997L256.251 111.68ZM262.491 75.68L262.168 75.2985L262.03 75.4158L261.999 75.5946L262.491 75.68ZM278.211 62.36V61.86H278.028L277.888 61.9785L278.211 62.36ZM313.971 62.36L314.358 62.043L314.208 61.86H313.971V62.36ZM324.891 75.68L325.384 75.7646L325.423 75.5396L325.278 75.363L324.891 75.68ZM320.811 99.44V99.94H321.233L321.304 99.5246L320.811 99.44ZM281.091 99.44V98.94H280.68L280.601 99.344L281.091 99.44ZM280.011 104.96L279.521 104.864L279.474 105.102L279.632 105.285L280.011 104.96ZM283.611 109.16L283.232 109.485L283.381 109.66H283.611V109.16ZM318.051 109.16L318.544 109.246L318.646 108.66H318.051V109.16ZM315.291 125V125.5H315.712L315.784 125.086L315.291 125ZM283.371 86.48L282.879 86.3927L282.775 86.98H283.371V86.48ZM302.451 86.48V86.98H302.871L302.944 86.5673L302.451 86.48ZM303.771 79.04L304.264 79.1273L304.305 78.8943L304.151 78.7146L303.771 79.04ZM300.171 74.84L300.551 74.5146L300.401 74.34H300.171V74.84ZM289.731 74.84V74.34H289.55L289.411 74.4559L289.731 74.84ZM284.691 79.04L284.371 78.6559L284.231 78.7728L284.199 78.9527L284.691 79.04ZM267.558 124.683L256.638 111.363L255.865 111.997L266.785 125.317L267.558 124.683ZM256.744 111.765L262.984 75.7654L261.999 75.5946L255.759 111.595L256.744 111.765ZM262.815 76.0615L278.535 62.7415L277.888 61.9785L262.168 75.2985L262.815 76.0615ZM278.211 62.86H313.971V61.86H278.211V62.86ZM313.585 62.677L324.505 75.997L325.278 75.363L314.358 62.043L313.585 62.677ZM324.399 75.5954L320.319 99.3554L321.304 99.5246L325.384 75.7646L324.399 75.5954ZM320.811 98.94H281.091V99.94H320.811V98.94ZM280.601 99.344L279.521 104.864L280.502 105.056L281.582 99.536L280.601 99.344ZM279.632 105.285L283.232 109.485L283.991 108.835L280.391 104.635L279.632 105.285ZM283.611 109.66H318.051V108.66H283.611V109.66ZM317.559 109.074L314.799 124.914L315.784 125.086L318.544 109.246L317.559 109.074ZM315.291 124.5H267.171V125.5H315.291V124.5ZM283.371 86.98H302.451V85.98H283.371V86.98ZM302.944 86.5673L304.264 79.1273L303.279 78.9527L301.959 86.3927L302.944 86.5673ZM304.151 78.7146L300.551 74.5146L299.792 75.1654L303.392 79.3654L304.151 78.7146ZM300.171 74.34H289.731V75.34H300.171V74.34ZM289.411 74.4559L284.371 78.6559L285.012 79.4241L290.051 75.2241L289.411 74.4559ZM284.199 78.9527L282.879 86.3927L283.864 86.5673L285.184 79.1273L284.199 78.9527ZM350.714 125L350.221 124.914L350.119 125.5H350.714V125ZM354.314 104.36L354.018 103.957L353.856 104.076L353.821 104.274L354.314 104.36ZM408.434 64.64L408.73 65.0431L408.891 64.9246L408.926 64.7273L408.434 64.64ZM409.754 57.2L410.246 57.2873L410.286 57.0644L410.144 56.8877L409.754 57.2ZM406.874 53.6L407.264 53.2877L407.114 53.1H406.874V53.6ZM391.034 53.6V53.1H390.849L390.708 53.2204L391.034 53.6ZM386.834 57.2L386.508 56.8204L386.374 56.9359L386.342 57.1106L386.834 57.2ZM385.154 66.44V66.94H385.571L385.646 66.5294L385.154 66.44ZM362.474 66.44L361.982 66.352L361.877 66.94H362.474V66.44ZM365.714 48.32L365.401 47.9302L365.255 48.0475L365.222 48.232L365.714 48.32ZM380.354 36.56V36.06H380.178L380.041 36.1702L380.354 36.56ZM423.434 36.56L423.806 36.2259L423.657 36.06H423.434V36.56ZM433.994 48.32L434.486 48.407L434.529 48.1672L434.366 47.9859L433.994 48.32ZM429.794 72.08L430.086 72.4856L430.251 72.3669L430.286 72.167L429.794 72.08ZM381.194 107.12L380.901 106.714L379.645 107.62H381.194V107.12ZM424.274 107.12L424.766 107.206L424.869 106.62H424.274V107.12ZM421.154 125V125.5H421.574L421.646 125.086L421.154 125ZM351.206 125.086L354.806 104.446L353.821 104.274L350.221 124.914L351.206 125.086ZM354.61 104.763L408.73 65.0431L408.138 64.2369L354.018 103.957L354.61 104.763ZM408.926 64.7273L410.246 57.2873L409.262 57.1127L407.942 64.5527L408.926 64.7273ZM410.144 56.8877L407.264 53.2877L406.483 53.9123L409.363 57.5123L410.144 56.8877ZM406.874 53.1H391.034V54.1H406.874V53.1ZM390.708 53.2204L386.508 56.8204L387.159 57.5796L391.359 53.9796L390.708 53.2204ZM386.342 57.1106L384.662 66.3506L385.646 66.5294L387.326 57.2894L386.342 57.1106ZM385.154 65.94H362.474V66.94H385.154V65.94ZM362.966 66.528L366.206 48.408L365.222 48.232L361.982 66.352L362.966 66.528ZM366.027 48.7098L380.667 36.9498L380.041 36.1702L365.401 47.9302L366.027 48.7098ZM380.354 37.06H423.434V36.06H380.354V37.06ZM423.062 36.8941L433.622 48.6541L434.366 47.9859L423.806 36.2259L423.062 36.8941ZM433.502 48.233L429.302 71.993L430.286 72.167L434.486 48.407L433.502 48.233ZM429.501 71.6744L380.901 106.714L381.486 107.526L430.086 72.4856L429.501 71.6744ZM381.194 107.62H424.274V106.62H381.194V107.62ZM423.781 107.034L420.661 124.914L421.646 125.086L424.766 107.206L423.781 107.034ZM421.154 124.5H350.714V125.5H421.154V124.5ZM457.359 125L456.867 124.913L456.763 125.5H457.359V125ZM472.959 36.56V36.06H472.54L472.467 36.4731L472.959 36.56ZM540.639 36.56L541.132 36.6474L541.236 36.06H540.639V36.56ZM537.399 54.8V55.3H537.818L537.892 54.8874L537.399 54.8ZM492.399 54.8V54.3H491.98L491.907 54.7131L492.399 54.8ZM489.519 71.12L489.027 71.0331L488.923 71.62H489.519V71.12ZM530.079 71.12L530.572 71.2039L530.672 70.62H530.079V71.12ZM527.199 88.04V88.54H527.621L527.692 88.1239L527.199 88.04ZM486.519 88.04V87.54H486.098L486.027 87.9547L486.519 88.04ZM483.279 106.76L482.787 106.675L482.685 107.26H483.279V106.76ZM528.279 106.76L528.772 106.847L528.876 106.26H528.279V106.76ZM525.039 125V125.5H525.458L525.531 125.087L525.039 125ZM457.852 125.087L473.452 36.6468L472.467 36.4731L456.867 124.913L457.852 125.087ZM472.959 37.06H540.639V36.06H472.959V37.06ZM540.147 36.4725L536.907 54.7125L537.892 54.8874L541.132 36.6474L540.147 36.4725ZM537.399 54.3H492.399V55.3H537.399V54.3ZM491.907 54.7131L489.027 71.0331L490.012 71.2069L492.892 54.8869L491.907 54.7131ZM489.519 71.62H530.079V70.62H489.519V71.62ZM529.586 71.0361L526.706 87.9561L527.692 88.1239L530.572 71.2039L529.586 71.0361ZM527.199 87.54H486.519V88.54H527.199V87.54ZM486.027 87.9547L482.787 106.675L483.772 106.845L487.012 88.1253L486.027 87.9547ZM483.279 107.26H528.279V106.26H483.279V107.26ZM527.787 106.673L524.547 124.913L525.531 125.087L528.772 106.847L527.787 106.673ZM525.039 124.5H457.359V125.5H525.039V124.5ZM526.322 125L525.87 124.786L525.531 125.5H526.322V125ZM568.322 36.56V36.06H568.006L567.87 36.3455L568.322 36.56ZM604.922 36.56L605.418 36.5034L605.368 36.06H604.922V36.56ZM615.002 125V125.5H615.562L615.498 124.943L615.002 125ZM592.202 125L591.703 125.037L591.738 125.5H592.202V125ZM590.882 107.36L591.38 107.323L591.346 106.86H590.882V107.36ZM559.322 107.36V106.86H558.99L558.861 107.166L559.322 107.36ZM551.882 125V125.5H552.213L552.342 125.194L551.882 125ZM566.402 90.08L565.943 89.8814L565.641 90.58H566.402V90.08ZM589.442 90.08V90.58H589.983L589.94 90.0408L589.442 90.08ZM586.562 53.48L587.06 53.4408L587.024 52.98H586.562V53.48ZM582.242 53.48V52.98H581.913L581.783 53.2814L582.242 53.48ZM526.773 125.214L568.773 36.7745L567.87 36.3455L525.87 124.786L526.773 125.214ZM568.322 37.06H604.922V36.06H568.322V37.06ZM604.425 36.6166L614.505 125.057L615.498 124.943L605.418 36.5034L604.425 36.6166ZM615.002 124.5H592.202V125.5H615.002V124.5ZM592.7 124.963L591.38 107.323L590.383 107.397L591.703 125.037L592.7 124.963ZM590.882 106.86H559.322V107.86H590.882V106.86ZM558.861 107.166L551.421 124.806L552.342 125.194L559.782 107.554L558.861 107.166ZM551.882 124.5H526.322V125.5H551.882V124.5ZM566.402 90.58H589.442V89.58H566.402V90.58ZM589.94 90.0408L587.06 53.4408L586.063 53.5192L588.943 90.1192L589.94 90.0408ZM586.562 52.98H582.242V53.98H586.562V52.98ZM581.783 53.2814L565.943 89.8814L566.861 90.2786L582.701 53.6786L581.783 53.2814ZM620.081 125L619.589 124.913L619.485 125.5H620.081V125ZM635.681 36.56V36.06H635.262L635.189 36.4731L635.681 36.56ZM696.401 36.56L696.784 36.2389L696.634 36.06H696.401V36.56ZM707.561 49.88L708.053 49.9676L708.094 49.7378L707.944 49.5589L707.561 49.88ZM701.921 81.56L702.244 81.9417L702.382 81.8252L702.413 81.6476L701.921 81.56ZM689.441 92.12L689.118 91.7383L688.885 91.9351L688.954 92.232L689.441 92.12ZM697.001 125V125.5H697.629L697.488 124.888L697.001 125ZM675.521 125L675.032 125.103L675.116 125.5H675.521V125ZM669.161 94.88L669.65 94.7767L669.567 94.38H669.161V94.88ZM648.041 94.88V94.38H647.621L647.549 94.7937L648.041 94.88ZM642.761 125V125.5H643.181L643.254 125.086L642.761 125ZM651.041 77.84L650.549 77.7523L650.444 78.34H651.041V77.84ZM676.241 77.84V78.34H676.422L676.561 78.2241L676.241 77.84ZM681.281 73.64L681.601 74.0241L681.742 73.9066L681.774 73.7258L681.281 73.64ZM684.041 57.8L684.534 57.8858L684.573 57.6586L684.426 57.481L684.041 57.8ZM680.561 53.6L680.946 53.281L680.796 53.1H680.561V53.6ZM655.361 53.6V53.1H654.942L654.869 53.5123L655.361 53.6ZM620.573 125.087L636.173 36.6468L635.189 36.4731L619.589 124.913L620.573 125.087ZM635.681 37.06H696.401V36.06H635.681V37.06ZM696.018 36.8811L707.178 50.2011L707.944 49.5589L696.784 36.2389L696.018 36.8811ZM707.069 49.7924L701.429 81.4724L702.413 81.6476L708.053 49.9676L707.069 49.7924ZM701.598 81.1783L689.118 91.7383L689.764 92.5017L702.244 81.9417L701.598 81.1783ZM688.954 92.232L696.514 125.112L697.488 124.888L689.928 92.008L688.954 92.232ZM697.001 124.5H675.521V125.5H697.001V124.5ZM676.01 124.897L669.65 94.7767L668.672 94.9833L675.032 125.103L676.01 124.897ZM669.161 94.38H648.041V95.38H669.161V94.38ZM647.549 94.7937L642.269 124.914L643.254 125.086L648.534 94.9663L647.549 94.7937ZM642.761 124.5H620.081V125.5H642.761V124.5ZM651.041 78.34H676.241V77.34H651.041V78.34ZM676.561 78.2241L681.601 74.0241L680.961 73.2559L675.921 77.4559L676.561 78.2241ZM681.774 73.7258L684.534 57.8858L683.549 57.7142L680.789 73.5542L681.774 73.7258ZM684.426 57.481L680.946 53.281L680.176 53.919L683.656 58.119L684.426 57.481ZM680.561 53.1H655.361V54.1H680.561V53.1ZM654.869 53.5123L650.549 77.7523L651.533 77.9277L655.853 53.6877L654.869 53.5123ZM705.544 125L705.051 124.913L704.948 125.5H705.544V125ZM721.144 36.56V36.06H720.724L720.651 36.4731L721.144 36.56ZM744.424 36.56L744.89 36.3802L744.767 36.06H744.424V36.56ZM765.784 92L765.317 92.1798L765.962 93.8545L766.276 92.0874L765.784 92ZM775.624 36.56V36.06H775.205L775.131 36.4726L775.624 36.56ZM796.744 36.56L797.236 36.6468L797.34 36.06H796.744V36.56ZM781.144 125V125.5H781.563L781.636 125.087L781.144 125ZM760.024 125L759.557 125.179L759.68 125.5H760.024V125ZM740.104 73.16L740.57 72.9807L740.447 72.66H740.104V73.16ZM735.784 73.16V72.66H735.364L735.291 73.0734L735.784 73.16ZM726.664 125V125.5H727.083L727.156 125.087L726.664 125ZM706.036 125.087L721.636 36.6468L720.651 36.4731L705.051 124.913L706.036 125.087ZM721.144 37.06H744.424V36.06H721.144V37.06ZM743.957 36.7398L765.317 92.1798L766.25 91.8202L744.89 36.3802L743.957 36.7398ZM766.276 92.0874L776.116 36.6474L775.131 36.4726L765.291 91.9126L766.276 92.0874ZM775.624 37.06H796.744V36.06H775.624V37.06ZM796.251 36.4731L780.651 124.913L781.636 125.087L797.236 36.6468L796.251 36.4731ZM781.144 124.5H760.024V125.5H781.144V124.5ZM760.49 124.821L740.57 72.9807L739.637 73.3393L759.557 125.179L760.49 124.821ZM740.104 72.66H735.784V73.66H740.104V72.66ZM735.291 73.0734L726.171 124.913L727.156 125.087L736.276 73.2466L735.291 73.0734ZM726.664 124.5H705.544V125.5H726.664V124.5ZM810.75 125L810.298 124.786L809.959 125.5H810.75V125ZM852.75 36.56V36.06H852.434L852.298 36.3455L852.75 36.56ZM889.35 36.56L889.847 36.5034L889.796 36.06H889.35V36.56ZM899.43 125V125.5H899.99L899.927 124.943L899.43 125ZM876.63 125L876.131 125.037L876.166 125.5H876.63V125ZM875.31 107.36L875.808 107.323L875.774 106.86H875.31V107.36ZM843.75 107.36V106.86H843.418L843.289 107.166L843.75 107.36ZM836.31 125V125.5H836.642L836.771 125.194L836.31 125ZM850.83 90.08L850.371 89.8814L850.069 90.58H850.83V90.08ZM873.87 90.08V90.58H874.411L874.368 90.0408L873.87 90.08ZM870.99 53.48L871.488 53.4408L871.452 52.98H870.99V53.48ZM866.67 53.48V52.98H866.341L866.211 53.2814L866.67 53.48ZM811.201 125.214L853.201 36.7745L852.298 36.3455L810.298 124.786L811.201 125.214ZM852.75 37.06H889.35V36.06H852.75V37.06ZM888.853 36.6166L898.933 125.057L899.927 124.943L889.847 36.5034L888.853 36.6166ZM899.43 124.5H876.63V125.5H899.43V124.5ZM877.128 124.963L875.808 107.323L874.811 107.397L876.131 125.037L877.128 124.963ZM875.31 106.86H843.75V107.86H875.31V106.86ZM843.289 107.166L835.849 124.806L836.771 125.194L844.211 107.554L843.289 107.166ZM836.31 124.5H810.75V125.5H836.31V124.5ZM850.83 90.58H873.87V89.58H850.83V90.58ZM874.368 90.0408L871.488 53.4408L870.491 53.5192L873.371 90.1192L874.368 90.0408ZM870.99 52.98H866.67V53.98H870.99V52.98ZM866.211 53.2814L850.371 89.8814L851.289 90.2786L867.129 53.6786L866.211 53.2814ZM904.509 125L904.017 124.913L903.913 125.5H904.509V125ZM920.109 36.56V36.06H919.69L919.617 36.4731L920.109 36.56ZM979.749 36.56L980.134 36.2409L979.984 36.06H979.749V36.56ZM990.789 49.88L991.282 49.9667L991.322 49.739L991.174 49.5609L990.789 49.88ZM984.789 83.96L985.112 84.3415L985.25 84.2247L985.282 84.0467L984.789 83.96ZM969.069 97.28V97.78H969.253L969.392 97.6615L969.069 97.28ZM932.109 97.28V96.78H931.69L931.617 97.1926L932.109 97.28ZM927.189 125V125.5H927.608L927.681 125.087L927.189 125ZM935.109 80.24L934.617 80.1535L934.514 80.74H935.109V80.24ZM959.229 80.24V80.74H959.414L959.554 80.6203L959.229 80.24ZM964.149 76.04L964.474 76.4203L964.61 76.3039L964.641 76.1274L964.149 76.04ZM967.389 57.8L967.881 57.8874L967.922 57.6594L967.774 57.481L967.389 57.8ZM963.909 53.6L964.294 53.281L964.144 53.1H963.909V53.6ZM939.789 53.6V53.1H939.369L939.297 53.5135L939.789 53.6ZM905.002 125.087L920.602 36.6468L919.617 36.4731L904.017 124.913L905.002 125.087ZM920.109 37.06H979.749V36.06H920.109V37.06ZM979.364 36.8791L990.404 50.1991L991.174 49.5609L980.134 36.2409L979.364 36.8791ZM990.297 49.7933L984.297 83.8733L985.282 84.0467L991.282 49.9667L990.297 49.7933ZM984.466 83.5785L968.746 96.8985L969.392 97.6615L985.112 84.3415L984.466 83.5785ZM969.069 96.78H932.109V97.78H969.069V96.78ZM931.617 97.1926L926.697 124.913L927.681 125.087L932.602 97.3674L931.617 97.1926ZM927.189 124.5H904.509V125.5H927.189V124.5ZM935.109 80.74H959.229V79.74H935.109V80.74ZM959.554 80.6203L964.474 76.4203L963.825 75.6597L958.905 79.8597L959.554 80.6203ZM964.641 76.1274L967.881 57.8874L966.897 57.7126L963.657 75.9526L964.641 76.1274ZM967.774 57.481L964.294 53.281L963.524 53.919L967.004 58.119L967.774 57.481ZM963.909 53.1H939.789V54.1H963.909V53.1ZM939.297 53.5135L934.617 80.1535L935.602 80.3265L940.282 53.6865L939.297 53.5135ZM983.644 125L983.151 124.913L983.048 125.5H983.644V125ZM999.244 36.56V36.06H998.824L998.751 36.4731L999.244 36.56ZM1058.88 36.56L1059.27 36.2409L1059.12 36.06H1058.88V36.56ZM1069.92 49.88L1070.42 49.9667L1070.46 49.739L1070.31 49.5609L1069.92 49.88ZM1063.92 83.96L1064.25 84.3415L1064.38 84.2247L1064.42 84.0467L1063.92 83.96ZM1048.2 97.28V97.78H1048.39L1048.53 97.6615L1048.2 97.28ZM1011.24 97.28V96.78H1010.82L1010.75 97.1926L1011.24 97.28ZM1006.32 125V125.5H1006.74L1006.82 125.087L1006.32 125ZM1014.24 80.24L1013.75 80.1535L1013.65 80.74H1014.24V80.24ZM1038.36 80.24V80.74H1038.55L1038.69 80.6203L1038.36 80.24ZM1043.28 76.04L1043.61 76.4203L1043.74 76.3039L1043.78 76.1274L1043.28 76.04ZM1046.52 57.8L1047.02 57.8874L1047.06 57.6594L1046.91 57.481L1046.52 57.8ZM1043.04 53.6L1043.43 53.281L1043.28 53.1H1043.04V53.6ZM1018.92 53.6V53.1H1018.5L1018.43 53.5135L1018.92 53.6ZM984.136 125.087L999.736 36.6468L998.751 36.4731L983.151 124.913L984.136 125.087ZM999.244 37.06H1058.88V36.06H999.244V37.06ZM1058.5 36.8791L1069.54 50.1991L1070.31 49.5609L1059.27 36.2409L1058.5 36.8791ZM1069.43 49.7933L1063.43 83.8733L1064.42 84.0467L1070.42 49.9667L1069.43 49.7933ZM1063.6 83.5785L1047.88 96.8985L1048.53 97.6615L1064.25 84.3415L1063.6 83.5785ZM1048.2 96.78H1011.24V97.78H1048.2V96.78ZM1010.75 97.1926L1005.83 124.913L1006.82 125.087L1011.74 97.3674L1010.75 97.1926ZM1006.32 124.5H983.644V125.5H1006.32V124.5ZM1014.24 80.74H1038.36V79.74H1014.24V80.74ZM1038.69 80.6203L1043.61 76.4203L1042.96 75.6597L1038.04 79.8597L1038.69 80.6203ZM1043.78 76.1274L1047.02 57.8874L1046.03 57.7126L1042.79 75.9526L1043.78 76.1274ZM1046.91 57.481L1043.43 53.281L1042.66 53.919L1046.14 58.119L1046.91 57.481ZM1043.04 53.1H1018.92V54.1H1043.04V53.1ZM1018.43 53.5135L1013.75 80.1535L1014.74 80.3265L1019.42 53.6865L1018.43 53.5135Z"
              fill="white"
            />
            <g filter="url(#filter0_f_218_1439)">
              <path
                d="M13.542 125L12.5572 124.826L12.3502 126H13.542V125ZM29.142 36.56V35.56H28.303L28.1572 36.3863L29.142 36.56ZM87.342 36.56L88.114 35.9243L87.8139 35.56H87.342V36.56ZM102.462 54.92L103.447 55.0936L103.527 54.6399L103.234 54.2843L102.462 54.92ZM93.342 106.64L93.9897 107.402L94.2643 107.169L94.3268 106.814L93.342 106.64ZM71.742 125V126H72.1096L72.3897 125.762L71.742 125ZM39.222 107.96L38.2373 107.786L38.0299 108.96H39.222V107.96ZM64.782 107.96V108.96H65.1467L65.4258 108.725L64.782 107.96ZM72.342 101.6L72.9858 102.365L73.264 102.131L73.3269 101.773L72.342 101.6ZM79.662 59.96L80.6469 60.1331L80.727 59.6773L80.4314 59.3212L79.662 59.96ZM74.382 53.6L75.1514 52.9612L74.8515 52.6H74.382V53.6ZM48.822 53.6V52.6H47.9831L47.8373 53.4261L48.822 53.6ZM14.5268 125.174L30.1268 36.7337L28.1572 36.3863L12.5572 124.826L14.5268 125.174ZM29.142 37.56H87.342V35.56H29.142V37.56ZM86.5701 37.1957L101.69 55.5557L103.234 54.2843L88.114 35.9243L86.5701 37.1957ZM101.477 54.7463L92.3572 106.466L94.3268 106.814L103.447 55.0936L101.477 54.7463ZM92.6944 105.878L71.0944 124.238L72.3897 125.762L93.9897 107.402L92.6944 105.878ZM71.742 124H13.542V126H71.742V124ZM39.222 108.96H64.782V106.96H39.222V108.96ZM65.4258 108.725L72.9858 102.365L71.6983 100.835L64.1383 107.195L65.4258 108.725ZM73.3269 101.773L80.6469 60.1331L78.6771 59.7869L71.3571 101.427L73.3269 101.773ZM80.4314 59.3212L75.1514 52.9612L73.6126 54.2388L78.8926 60.5987L80.4314 59.3212ZM74.382 52.6H48.822V54.6H74.382V52.6ZM47.8373 53.4261L38.2373 107.786L40.2068 108.134L49.8068 53.7739L47.8373 53.4261ZM98.6389 125L97.654 124.827L97.4476 126H98.6389V125ZM109.679 62.24V61.24H108.839L108.694 62.0668L109.679 62.24ZM132.359 62.24L133.345 62.4083L133.544 61.24H132.359V62.24ZM130.679 72.08L129.693 71.9117L129.256 74.471L131.297 72.8661L130.679 72.08ZM143.039 62.36V61.36H142.693L142.421 61.5739L143.039 62.36ZM155.519 62.36L156.504 62.5311L156.708 61.36H155.519V62.36ZM152.039 82.4V83.4H152.88L153.024 82.5711L152.039 82.4ZM133.799 82.4V81.4H133.458L133.188 81.608L133.799 82.4ZM128.039 86.84L127.428 86.048L127.121 86.2847L127.054 86.6666L128.039 86.84ZM121.319 125V126H122.158L122.304 125.173L121.319 125ZM99.6238 125.173L110.664 62.4132L108.694 62.0668L97.654 124.827L99.6238 125.173ZM109.679 63.24H132.359V61.24H109.679V63.24ZM131.373 62.0717L129.693 71.9117L131.665 72.2483L133.345 62.4083L131.373 62.0717ZM131.297 72.8661L143.657 63.1461L142.421 61.5739L130.061 71.2939L131.297 72.8661ZM143.039 63.36H155.519V61.36H143.039V63.36ZM154.534 62.1889L151.054 82.2289L153.024 82.5711L156.504 62.5311L154.534 62.1889ZM152.039 81.4H133.799V83.4H152.039V81.4ZM133.188 81.608L127.428 86.048L128.649 87.632L134.409 83.192L133.188 81.608ZM127.054 86.6666L120.334 124.827L122.304 125.173L129.024 87.0134L127.054 86.6666ZM121.319 124H98.6389V126H121.319V124ZM161.654 55.28L160.669 55.1042L160.46 56.28H161.654V55.28ZM164.654 38.48V37.48H163.817L163.669 38.3042L164.654 38.48ZM187.574 38.48L188.558 38.6558L188.768 37.48H187.574V38.48ZM184.574 55.28V56.28H185.411L185.558 55.4558L184.574 55.28ZM149.534 125L148.549 124.827L148.343 126H149.534V125ZM160.574 62.24V61.24H159.734L159.589 62.0668L160.574 62.24ZM183.254 62.24L184.239 62.4132L184.445 61.24H183.254V62.24ZM172.214 125V126H173.053L173.199 125.173L172.214 125ZM162.638 55.4558L165.638 38.6558L163.669 38.3042L160.669 55.1042L162.638 55.4558ZM164.654 39.48H187.574V37.48H164.654V39.48ZM186.589 38.3042L183.589 55.1042L185.558 55.4558L188.558 38.6558L186.589 38.3042ZM184.574 54.28H161.654V56.28H184.574V54.28ZM150.519 125.173L161.559 62.4132L159.589 62.0668L148.549 124.827L150.519 125.173ZM160.574 63.24H183.254V61.24H160.574V63.24ZM182.269 62.0668L171.229 124.827L173.199 125.173L184.239 62.4132L182.269 62.0668ZM172.214 124H149.534V126H172.214V124ZM198.54 125L197.555 125.175L197.702 126H198.54V125ZM187.38 62.36V61.36H186.186L186.395 62.5354L187.38 62.36ZM212.22 62.36L213.218 62.2945L213.156 61.36H212.22V62.36ZM215.22 108.08L214.222 108.145L214.283 109.08H215.22V108.08ZM219.54 108.08V109.08H220.246L220.482 108.414L219.54 108.08ZM235.74 62.36V61.36H235.033L234.797 62.026L235.74 62.36ZM263.46 62.36L264.343 62.8287L265.123 61.36H263.46V62.36ZM230.22 125V126H230.821L231.103 125.469L230.22 125ZM199.524 124.825L188.364 62.1846L186.395 62.5354L197.555 125.175L199.524 124.825ZM187.38 63.36H212.22V61.36H187.38V63.36ZM211.222 62.4255L214.222 108.145L216.218 108.015L213.218 62.2945L211.222 62.4255ZM215.22 109.08H219.54V107.08H215.22V109.08ZM220.482 108.414L236.682 62.694L234.797 62.026L218.597 107.746L220.482 108.414ZM235.74 63.36H263.46V61.36H235.74V63.36ZM262.577 61.8913L229.337 124.531L231.103 125.469L264.343 62.8287L262.577 61.8913ZM230.22 124H198.54V126H230.22V124ZM267.171 125L266.398 125.634L266.698 126H267.171V125ZM256.251 111.68L255.266 111.509L255.188 111.96L255.478 112.314L256.251 111.68ZM262.491 75.68L261.845 74.9171L261.568 75.1516L261.506 75.5092L262.491 75.68ZM278.211 62.36V61.36H277.845L277.565 61.5971L278.211 62.36ZM313.971 62.36L314.745 61.726L314.445 61.36H313.971V62.36ZM324.891 75.68L325.877 75.8492L325.954 75.3992L325.665 75.046L324.891 75.68ZM320.811 99.44V100.44H321.654L321.797 99.6092L320.811 99.44ZM281.091 99.44V98.44H280.268L280.11 99.248L281.091 99.44ZM280.011 104.96L279.03 104.768L278.937 105.243L279.252 105.611L280.011 104.96ZM283.611 109.16L282.852 109.811L283.151 110.16H283.611V109.16ZM318.051 109.16L319.037 109.332L319.241 108.16H318.051V109.16ZM315.291 125V126H316.132L316.277 125.172L315.291 125ZM283.371 86.48L282.387 86.3053L282.178 87.48H283.371V86.48ZM302.451 86.48V87.48H303.29L303.436 86.6547L302.451 86.48ZM303.771 79.04L304.756 79.2147L304.839 78.7486L304.531 78.3892L303.771 79.04ZM300.171 74.84L300.931 74.1892L300.631 73.84H300.171V74.84ZM289.731 74.84V73.84H289.369L289.091 74.0718L289.731 74.84ZM284.691 79.04L284.051 78.2718L283.771 78.5056L283.707 78.8653L284.691 79.04ZM267.945 124.366L257.025 111.046L255.478 112.314L266.398 125.634L267.945 124.366ZM257.237 111.851L263.477 75.8508L261.506 75.5092L255.266 111.509L257.237 111.851ZM263.138 76.4429L278.858 63.1229L277.565 61.5971L261.845 74.9171L263.138 76.4429ZM278.211 63.36H313.971V61.36H278.211V63.36ZM313.198 62.994L324.118 76.314L325.665 75.046L314.745 61.726L313.198 62.994ZM323.906 75.5108L319.826 99.2708L321.797 99.6092L325.877 75.8492L323.906 75.5108ZM320.811 98.44H281.091V100.44H320.811V98.44ZM280.11 99.248L279.03 104.768L280.993 105.152L282.073 99.632L280.11 99.248ZM279.252 105.611L282.852 109.811L284.371 108.509L280.771 104.309L279.252 105.611ZM283.611 110.16H318.051V108.16H283.611V110.16ZM317.066 108.988L314.306 124.828L316.277 125.172L319.037 109.332L317.066 108.988ZM315.291 124H267.171V126H315.291V124ZM283.371 87.48H302.451V85.48H283.371V87.48ZM303.436 86.6547L304.756 79.2147L302.787 78.8653L301.467 86.3053L303.436 86.6547ZM304.531 78.3892L300.931 74.1892L299.412 75.4908L303.012 79.6908L304.531 78.3892ZM300.171 73.84H289.731V75.84H300.171V73.84ZM289.091 74.0718L284.051 78.2718L285.332 79.8082L290.372 75.6082L289.091 74.0718ZM283.707 78.8653L282.387 86.3053L284.356 86.6547L285.676 79.2147L283.707 78.8653ZM350.714 125L349.729 124.828L349.524 126H350.714V125ZM354.314 104.36L353.722 103.554L353.398 103.792L353.329 104.188L354.314 104.36ZM408.434 64.64L409.026 65.4462L409.349 65.2091L409.419 64.8147L408.434 64.64ZM409.754 57.2L410.739 57.3747L410.818 56.9289L410.535 56.5753L409.754 57.2ZM406.874 53.6L407.655 52.9753L407.355 52.6H406.874V53.6ZM391.034 53.6V52.6H390.664L390.383 52.8407L391.034 53.6ZM386.834 57.2L386.183 56.4407L385.914 56.6718L385.85 57.0211L386.834 57.2ZM385.154 66.44V67.44H385.988L386.138 66.6189L385.154 66.44ZM362.474 66.44L361.49 66.264L361.279 67.44H362.474V66.44ZM365.714 48.32L365.088 47.5404L364.795 47.7751L364.729 48.144L365.714 48.32ZM380.354 36.56V35.56H380.002L379.728 35.7804L380.354 36.56ZM423.434 36.56L424.178 35.8919L423.88 35.56H423.434V36.56ZM433.994 48.32L434.979 48.4941L435.063 48.0143L434.738 47.6519L433.994 48.32ZM429.794 72.08L430.379 72.8912L430.708 72.6538L430.779 72.2541L429.794 72.08ZM381.194 107.12L380.609 106.309L378.097 108.12H381.194V107.12ZM424.274 107.12L425.259 107.292L425.464 106.12H424.274V107.12ZM421.154 125V126H421.995L422.139 125.172L421.154 125ZM351.699 125.172L355.299 104.532L353.329 104.188L349.729 124.828L351.699 125.172ZM354.906 105.166L409.026 65.4462L407.842 63.8338L353.722 103.554L354.906 105.166ZM409.419 64.8147L410.739 57.3747L408.769 57.0253L407.449 64.4653L409.419 64.8147ZM410.535 56.5753L407.655 52.9753L406.093 54.2247L408.973 57.8247L410.535 56.5753ZM406.874 52.6H391.034V54.6H406.874V52.6ZM390.383 52.8407L386.183 56.4407L387.485 57.9593L391.685 54.3593L390.383 52.8407ZM385.85 57.0211L384.17 66.2611L386.138 66.6189L387.818 57.3789L385.85 57.0211ZM385.154 65.44H362.474V67.44H385.154V65.44ZM363.458 66.616L366.698 48.496L364.729 48.144L361.49 66.264L363.458 66.616ZM366.34 49.0996L380.98 37.3396L379.728 35.7804L365.088 47.5404L366.34 49.0996ZM380.354 37.56H423.434V35.56H380.354V37.56ZM422.69 37.2281L433.25 48.9881L434.738 47.6519L424.178 35.8919L422.69 37.2281ZM433.009 48.1459L428.809 71.9059L430.779 72.2541L434.979 48.4941L433.009 48.1459ZM429.209 71.2688L380.609 106.309L381.779 107.931L430.379 72.8912L429.209 71.2688ZM381.194 108.12H424.274V106.12H381.194V108.12ZM423.289 106.948L420.169 124.828L422.139 125.172L425.259 107.292L423.289 106.948ZM421.154 124H350.714V126H421.154V124ZM457.359 125L456.374 124.826L456.167 126H457.359V125ZM472.959 36.56V35.56H472.12L471.974 36.3863L472.959 36.56ZM540.639 36.56L541.624 36.7349L541.833 35.56H540.639V36.56ZM537.399 54.8V55.8H538.237L538.384 54.9749L537.399 54.8ZM492.399 54.8V53.8H491.56L491.414 54.6262L492.399 54.8ZM489.519 71.12L488.534 70.9462L488.327 72.12H489.519V71.12ZM530.079 71.12L531.065 71.2878L531.264 70.12H530.079V71.12ZM527.199 88.04V89.04H528.043L528.185 88.2078L527.199 88.04ZM486.519 88.04V87.04H485.677L485.534 87.8695L486.519 88.04ZM483.279 106.76L482.294 106.589L482.091 107.76H483.279V106.76ZM528.279 106.76L529.264 106.935L529.473 105.76H528.279V106.76ZM525.039 125V126H525.877L526.024 125.175L525.039 125ZM458.344 125.174L473.944 36.7337L471.974 36.3863L456.374 124.826L458.344 125.174ZM472.959 37.56H540.639V35.56H472.959V37.56ZM539.655 36.3851L536.415 54.6251L538.384 54.9749L541.624 36.7349L539.655 36.3851ZM537.399 53.8H492.399V55.8H537.399V53.8ZM491.414 54.6262L488.534 70.9462L490.504 71.2938L493.384 54.9738L491.414 54.6262ZM489.519 72.12H530.079V70.12H489.519V72.12ZM529.093 70.9522L526.213 87.8722L528.185 88.2078L531.065 71.2878L529.093 70.9522ZM527.199 87.04H486.519V89.04H527.199V87.04ZM485.534 87.8695L482.294 106.589L484.265 106.931L487.505 88.2105L485.534 87.8695ZM483.279 107.76H528.279V105.76H483.279V107.76ZM527.295 106.585L524.055 124.825L526.024 125.175L529.264 106.935L527.295 106.585ZM525.039 124H457.359V126H525.039V124ZM526.322 125L525.418 124.571L524.74 126H526.322V125ZM568.322 36.56V35.56H567.69L567.418 36.131L568.322 36.56ZM604.922 36.56L605.915 36.4468L605.814 35.56H604.922V36.56ZM615.002 125V126H616.122L615.995 124.887L615.002 125ZM592.202 125L591.204 125.075L591.274 126H592.202V125ZM590.882 107.36L591.879 107.285L591.81 106.36H590.882V107.36ZM559.322 107.36V106.36H558.658L558.4 106.971L559.322 107.36ZM551.882 125V126H552.545L552.803 125.389L551.882 125ZM566.402 90.08L565.484 89.6828L564.879 91.08H566.402V90.08ZM589.442 90.08V91.08H590.523L590.439 90.0016L589.442 90.08ZM586.562 53.48L587.559 53.4016L587.486 52.48H586.562V53.48ZM582.242 53.48V52.48H581.585L581.324 53.0828L582.242 53.48ZM527.225 125.429L569.225 36.989L567.418 36.131L525.418 124.571L527.225 125.429ZM568.322 37.56H604.922V35.56H568.322V37.56ZM603.928 36.6732L614.008 125.113L615.995 124.887L605.915 36.4468L603.928 36.6732ZM615.002 124H592.202V126H615.002V124ZM593.199 124.925L591.879 107.285L589.884 107.435L591.204 125.075L593.199 124.925ZM590.882 106.36H559.322V108.36H590.882V106.36ZM558.4 106.971L550.96 124.611L552.803 125.389L560.243 107.749L558.4 106.971ZM551.882 124H526.322V126H551.882V124ZM566.402 91.08H589.442V89.08H566.402V91.08ZM590.439 90.0016L587.559 53.4016L585.565 53.5584L588.445 90.1584L590.439 90.0016ZM586.562 52.48H582.242V54.48H586.562V52.48ZM581.324 53.0828L565.484 89.6828L567.319 90.4772L583.159 53.8772L581.324 53.0828ZM620.081 125L619.096 124.826L618.889 126H620.081V125ZM635.681 36.56V35.56H634.842L634.696 36.3863L635.681 36.56ZM696.401 36.56L697.168 35.9178L696.868 35.56H696.401V36.56ZM707.561 49.88L708.546 50.0553L708.627 49.5956L708.328 49.2378L707.561 49.88ZM701.921 81.56L702.567 82.3234L702.842 82.0904L702.906 81.7353L701.921 81.56ZM689.441 92.12L688.795 91.3566L688.33 91.7502L688.466 92.3441L689.441 92.12ZM697.001 125V126H698.257L697.976 124.776L697.001 125ZM675.521 125L674.543 125.207L674.71 126H675.521V125ZM669.161 94.88L670.14 94.6734L669.972 93.88H669.161V94.88ZM648.041 94.88V93.88H647.201L647.056 94.7073L648.041 94.88ZM642.761 125V126H643.601L643.746 125.173L642.761 125ZM651.041 77.84L650.057 77.6645L649.847 78.84H651.041V77.84ZM676.241 77.84V78.84H676.603L676.881 78.6082L676.241 77.84ZM681.281 73.64L681.921 74.4082L682.203 74.1732L682.266 73.8117L681.281 73.64ZM684.041 57.8L685.026 57.9717L685.105 57.5172L684.811 57.162L684.041 57.8ZM680.561 53.6L681.331 52.962L681.031 52.6H680.561V53.6ZM655.361 53.6V52.6H654.524L654.377 53.4245L655.361 53.6ZM621.066 125.174L636.666 36.7337L634.696 36.3863L619.096 124.826L621.066 125.174ZM635.681 37.56H696.401V35.56H635.681V37.56ZM695.635 37.2022L706.795 50.5222L708.328 49.2378L697.168 35.9178L695.635 37.2022ZM706.577 49.7047L700.937 81.3847L702.906 81.7353L708.546 50.0553L706.577 49.7047ZM701.275 80.7966L688.795 91.3566L690.087 92.8834L702.567 82.3234L701.275 80.7966ZM688.466 92.3441L696.026 125.224L697.976 124.776L690.416 91.8959L688.466 92.3441ZM697.001 124H675.521V126H697.001V124ZM676.5 124.793L670.14 94.6734L668.183 95.0866L674.543 125.207L676.5 124.793ZM669.161 93.88H648.041V95.88H669.161V93.88ZM647.056 94.7073L641.776 124.827L643.746 125.173L649.026 95.0527L647.056 94.7073ZM642.761 124H620.081V126H642.761V124ZM651.041 78.84H676.241V76.84H651.041V78.84ZM676.881 78.6082L681.921 74.4082L680.641 72.8718L675.601 77.0718L676.881 78.6082ZM682.266 73.8117L685.026 57.9717L683.056 57.6283L680.296 73.4683L682.266 73.8117ZM684.811 57.162L681.331 52.962L679.791 54.238L683.271 58.438L684.811 57.162ZM680.561 52.6H655.361V54.6H680.561V52.6ZM654.377 53.4245L650.057 77.6645L652.026 78.0154L656.346 53.7755L654.377 53.4245ZM705.544 125L704.559 124.826L704.352 126H705.544V125ZM721.144 36.56V35.56H720.305L720.159 36.3863L721.144 36.56ZM744.424 36.56L745.357 36.2005L745.11 35.56H744.424V36.56ZM765.784 92L764.85 92.3595L766.141 95.7089L766.768 92.1748L765.784 92ZM775.624 36.56V35.56H774.785L774.639 36.3852L775.624 36.56ZM796.744 36.56L797.728 36.7337L797.935 35.56H796.744V36.56ZM781.144 125V126H781.983L782.128 125.174L781.144 125ZM760.024 125L759.09 125.359L759.337 126H760.024V125ZM740.104 73.16L741.037 72.8013L740.791 72.16H740.104V73.16ZM735.784 73.16V72.16H734.944L734.799 72.9867L735.784 73.16ZM726.664 125V126H727.503L727.648 125.173L726.664 125ZM706.528 125.174L722.128 36.7337L720.159 36.3863L704.559 124.826L706.528 125.174ZM721.144 37.56H744.424V35.56H721.144V37.56ZM743.49 36.9195L764.85 92.3595L766.717 91.6405L745.357 36.2005L743.49 36.9195ZM766.768 92.1748L776.608 36.7348L774.639 36.3852L764.799 91.8252L766.768 92.1748ZM775.624 37.56H796.744V35.56H775.624V37.56ZM795.759 36.3863L780.159 124.826L782.128 125.174L797.728 36.7337L795.759 36.3863ZM781.144 124H760.024V126H781.144V124ZM760.957 124.641L741.037 72.8013L739.17 73.5187L759.09 125.359L760.957 124.641ZM740.104 72.16H735.784V74.16H740.104V72.16ZM734.799 72.9867L725.679 124.827L727.648 125.173L736.768 73.3333L734.799 72.9867ZM726.664 124H705.544V126H726.664V124ZM810.75 125L809.847 124.571L809.168 126H810.75V125ZM852.75 36.56V35.56H852.118L851.847 36.131L852.75 36.56ZM889.35 36.56L890.343 36.4468L890.242 35.56H889.35V36.56ZM899.43 125V126H900.55L900.423 124.887L899.43 125ZM876.63 125L875.633 125.075L875.702 126H876.63V125ZM875.31 107.36L876.307 107.285L876.238 106.36H875.31V107.36ZM843.75 107.36V106.36H843.086L842.828 106.971L843.75 107.36ZM836.31 125V126H836.973L837.231 125.389L836.31 125ZM850.83 90.08L849.912 89.6828L849.307 91.08H850.83V90.08ZM873.87 90.08V91.08H874.952L874.867 90.0016L873.87 90.08ZM870.99 53.48L871.987 53.4016L871.914 52.48H870.99V53.48ZM866.67 53.48V52.48H866.013L865.752 53.0828L866.67 53.48ZM811.653 125.429L853.653 36.989L851.847 36.131L809.847 124.571L811.653 125.429ZM852.75 37.56H889.35V35.56H852.75V37.56ZM888.356 36.6732L898.436 125.113L900.423 124.887L890.343 36.4468L888.356 36.6732ZM899.43 124H876.63V126H899.43V124ZM877.627 124.925L876.307 107.285L874.313 107.435L875.633 125.075L877.627 124.925ZM875.31 106.36H843.75V108.36H875.31V106.36ZM842.828 106.971L835.388 124.611L837.231 125.389L844.671 107.749L842.828 106.971ZM836.31 124H810.75V126H836.31V124ZM850.83 91.08H873.87V89.08H850.83V91.08ZM874.867 90.0016L871.987 53.4016L869.993 53.5584L872.873 90.1584L874.867 90.0016ZM870.99 52.48H866.67V54.48H870.99V52.48ZM865.752 53.0828L849.912 89.6828L851.748 90.4772L867.588 53.8772L865.752 53.0828ZM904.509 125L903.524 124.826L903.317 126H904.509V125ZM920.109 36.56V35.56H919.27L919.124 36.3863L920.109 36.56ZM979.749 36.56L980.519 35.9219L980.219 35.56H979.749V36.56ZM990.789 49.88L991.774 50.0534L991.854 49.5979L991.559 49.2419L990.789 49.88ZM984.789 83.96L985.436 84.7229L985.711 84.4893L985.774 84.1334L984.789 83.96ZM969.069 97.28V98.28H969.436L969.716 98.0429L969.069 97.28ZM932.109 97.28V96.28H931.271L931.125 97.1052L932.109 97.28ZM927.189 125V126H928.027L928.174 125.175L927.189 125ZM935.109 80.24L934.124 80.067L933.918 81.24H935.109V80.24ZM959.229 80.24V81.24H959.598L959.878 81.0006L959.229 80.24ZM964.149 76.04L964.798 76.8006L965.071 76.5678L965.134 76.2149L964.149 76.04ZM967.389 57.8L968.374 57.9749L968.455 57.5187L968.159 57.162L967.389 57.8ZM963.909 53.6L964.679 52.962L964.379 52.6H963.909V53.6ZM939.789 53.6V52.6H938.95L938.804 53.427L939.789 53.6ZM905.494 125.174L921.094 36.7337L919.124 36.3863L903.524 124.826L905.494 125.174ZM920.109 37.56H979.749V35.56H920.109V37.56ZM978.979 37.1981L990.019 50.5181L991.559 49.2419L980.519 35.9219L978.979 37.1981ZM989.804 49.7066L983.804 83.7866L985.774 84.1334L991.774 50.0534L989.804 49.7066ZM984.143 83.1971L968.423 96.5171L969.716 98.0429L985.436 84.7229L984.143 83.1971ZM969.069 96.28H932.109V98.28H969.069V96.28ZM931.125 97.1052L926.205 124.825L928.174 125.175L933.094 97.4548L931.125 97.1052ZM927.189 124H904.509V126H927.189V124ZM935.109 81.24H959.229V79.24H935.109V81.24ZM959.878 81.0006L964.798 76.8006L963.5 75.2794L958.58 79.4794L959.878 81.0006ZM965.134 76.2149L968.374 57.9749L966.405 57.6251L963.165 75.8651L965.134 76.2149ZM968.159 57.162L964.679 52.962L963.139 54.238L966.619 58.438L968.159 57.162ZM963.909 52.6H939.789V54.6H963.909V52.6ZM938.804 53.427L934.124 80.067L936.094 80.413L940.774 53.773L938.804 53.427ZM983.644 125L982.659 124.826L982.452 126H983.644V125ZM999.244 36.56V35.56H998.405L998.259 36.3863L999.244 36.56ZM1058.88 36.56L1059.65 35.9219L1059.35 35.56H1058.88V36.56ZM1069.92 49.88L1070.91 50.0534L1070.99 49.5979L1070.69 49.2419L1069.92 49.88ZM1063.92 83.96L1064.57 84.7229L1064.85 84.4893L1064.91 84.1334L1063.92 83.96ZM1048.2 97.28V98.28H1048.57L1048.85 98.0429L1048.2 97.28ZM1011.24 97.28V96.28H1010.41L1010.26 97.1052L1011.24 97.28ZM1006.32 125V126H1007.16L1007.31 125.175L1006.32 125ZM1014.24 80.24L1013.26 80.067L1013.05 81.24H1014.24V80.24ZM1038.36 80.24V81.24H1038.73L1039.01 81.0006L1038.36 80.24ZM1043.28 76.04L1043.93 76.8006L1044.21 76.5678L1044.27 76.2149L1043.28 76.04ZM1046.52 57.8L1047.51 57.9749L1047.59 57.5187L1047.29 57.162L1046.52 57.8ZM1043.04 53.6L1043.81 52.962L1043.51 52.6H1043.04V53.6ZM1018.92 53.6V52.6H1018.08L1017.94 53.427L1018.92 53.6ZM984.628 125.174L1000.23 36.7337L998.259 36.3863L982.659 124.826L984.628 125.174ZM999.244 37.56H1058.88V35.56H999.244V37.56ZM1058.11 37.1981L1069.15 50.5181L1070.69 49.2419L1059.65 35.9219L1058.11 37.1981ZM1068.94 49.7066L1062.94 83.7866L1064.91 84.1334L1070.91 50.0534L1068.94 49.7066ZM1063.28 83.1971L1047.56 96.5171L1048.85 98.0429L1064.57 84.7229L1063.28 83.1971ZM1048.2 96.28H1011.24V98.28H1048.2V96.28ZM1010.26 97.1052L1005.34 124.825L1007.31 125.175L1012.23 97.4548L1010.26 97.1052ZM1006.32 124H983.644V126H1006.32V124ZM1014.24 81.24H1038.36V79.24H1014.24V81.24ZM1039.01 81.0006L1043.93 76.8006L1042.63 75.2794L1037.71 79.4794L1039.01 81.0006ZM1044.27 76.2149L1047.51 57.9749L1045.54 57.6251L1042.3 75.8651L1044.27 76.2149ZM1047.29 57.162L1043.81 52.962L1042.27 54.238L1045.75 58.438L1047.29 57.162ZM1043.04 52.6H1018.92V54.6H1043.04V52.6ZM1017.94 53.427L1013.26 80.067L1015.23 80.413L1019.91 53.773L1017.94 53.427Z"
                fill="#11D9EB"
              />
            </g>
            <g opacity="0.4" filter="url(#filter1_b_218_1439)">
              <path
                d="M11.542 123L27.142 34.56H85.342L100.462 52.92L91.342 104.64L69.742 123H11.542ZM37.222 105.96H62.782L70.342 99.6L77.662 57.96L72.382 51.6H46.822L37.222 105.96ZM96.6389 123L107.679 60.24H130.359L128.679 70.08L141.039 60.36H153.519L150.039 80.4H131.799L126.039 84.84L119.319 123H96.6389ZM159.654 53.28L162.654 36.48H185.574L182.574 53.28H159.654ZM147.534 123L158.574 60.24H181.254L170.214 123H147.534ZM196.54 123L185.38 60.36H210.22L213.22 106.08H217.54L233.74 60.36H261.46L228.22 123H196.54ZM265.171 123L254.251 109.68L260.491 73.68L276.211 60.36H311.971L322.891 73.68L318.811 97.44H279.091L278.011 102.96L281.611 107.16H316.051L313.291 123H265.171ZM281.371 84.48H300.451L301.771 77.04L298.171 72.84H287.731L282.691 77.04L281.371 84.48ZM348.714 123L352.314 102.36L406.434 62.64L407.754 55.2L404.874 51.6H389.034L384.834 55.2L383.154 64.44H360.474L363.714 46.32L378.354 34.56H421.434L431.994 46.32L427.794 70.08L379.194 105.12H422.274L419.154 123H348.714ZM455.359 123L470.959 34.56H538.639L535.399 52.8H490.399L487.519 69.12H528.079L525.199 86.04H484.519L481.279 104.76H526.279L523.039 123H455.359ZM524.322 123L566.322 34.56H602.922L613.002 123H590.202L588.882 105.36H557.322L549.882 123H524.322ZM564.402 88.08H587.442L584.562 51.48H580.242L564.402 88.08ZM618.081 123L633.681 34.56H694.401L705.561 47.88L699.921 79.56L687.441 90.12L695.001 123H673.521L667.161 92.88H646.041L640.761 123H618.081ZM649.041 75.84H674.241L679.281 71.64L682.041 55.8L678.561 51.6H653.361L649.041 75.84ZM703.544 123L719.144 34.56H742.424L763.784 90L773.624 34.56H794.744L779.144 123H758.024L738.104 71.16H733.784L724.664 123H703.544ZM808.75 123L850.75 34.56H887.35L897.43 123H874.63L873.31 105.36H841.75L834.31 123H808.75ZM848.83 88.08H871.87L868.99 51.48H864.67L848.83 88.08ZM902.509 123L918.109 34.56H977.749L988.789 47.88L982.789 81.96L967.069 95.28H930.109L925.189 123H902.509ZM933.109 78.24H957.229L962.149 74.04L965.389 55.8L961.909 51.6H937.789L933.109 78.24ZM981.644 123L997.244 34.56H1056.88L1067.92 47.88L1061.92 81.96L1046.2 95.28H1009.24L1004.32 123H981.644ZM1012.24 78.24H1036.36L1041.28 74.04L1044.52 55.8L1041.04 51.6H1016.92L1012.24 78.24Z"
                fill="url(#paint0_linear_218_1439)"
              />
              <path
                d="M11.542 123L10.5572 122.826L10.3502 124H11.542V123ZM27.142 34.56V33.56H26.303L26.1572 34.3863L27.142 34.56ZM85.342 34.56L86.114 33.9243L85.8139 33.56H85.342V34.56ZM100.462 52.92L101.447 53.0936L101.527 52.6399L101.234 52.2843L100.462 52.92ZM91.342 104.64L91.9897 105.402L92.2643 105.169L92.3268 104.814L91.342 104.64ZM69.742 123V124H70.1096L70.3897 123.762L69.742 123ZM37.222 105.96L36.2373 105.786L36.0299 106.96H37.222V105.96ZM62.782 105.96V106.96H63.1467L63.4258 106.725L62.782 105.96ZM70.342 99.6L70.9858 100.365L71.264 100.131L71.3269 99.7731L70.342 99.6ZM77.662 57.96L78.6469 58.1331L78.727 57.6773L78.4314 57.3212L77.662 57.96ZM72.382 51.6L73.1514 50.9612L72.8515 50.6H72.382V51.6ZM46.822 51.6V50.6H45.9831L45.8373 51.4261L46.822 51.6ZM12.5268 123.174L28.1268 34.7337L26.1572 34.3863L10.5572 122.826L12.5268 123.174ZM27.142 35.56H85.342V33.56H27.142V35.56ZM84.5701 35.1957L99.6901 53.5557L101.234 52.2843L86.114 33.9243L84.5701 35.1957ZM99.4772 52.7463L90.3572 104.466L92.3268 104.814L101.447 53.0936L99.4772 52.7463ZM90.6944 103.878L69.0944 122.238L70.3897 123.762L91.9897 105.402L90.6944 103.878ZM69.742 122H11.542V124H69.742V122ZM37.222 106.96H62.782V104.96H37.222V106.96ZM63.4258 106.725L70.9858 100.365L69.6983 98.8348L62.1383 105.195L63.4258 106.725ZM71.3269 99.7731L78.6469 58.1331L76.6771 57.7869L69.3571 99.4269L71.3269 99.7731ZM78.4314 57.3212L73.1514 50.9612L71.6126 52.2388L76.8926 58.5987L78.4314 57.3212ZM72.382 50.6H46.822V52.6H72.382V50.6ZM45.8373 51.4261L36.2373 105.786L38.2068 106.134L47.8068 51.7739L45.8373 51.4261ZM96.6389 123L95.654 122.827L95.4476 124H96.6389V123ZM107.679 60.24V59.24H106.839L106.694 60.0668L107.679 60.24ZM130.359 60.24L131.345 60.4083L131.544 59.24H130.359V60.24ZM128.679 70.08L127.693 69.9117L127.256 72.471L129.297 70.8661L128.679 70.08ZM141.039 60.36V59.36H140.693L140.421 59.5739L141.039 60.36ZM153.519 60.36L154.504 60.5311L154.708 59.36H153.519V60.36ZM150.039 80.4V81.4H150.88L151.024 80.5711L150.039 80.4ZM131.799 80.4V79.4H131.458L131.188 79.608L131.799 80.4ZM126.039 84.84L125.428 84.048L125.121 84.2847L125.054 84.6666L126.039 84.84ZM119.319 123V124H120.158L120.304 123.173L119.319 123ZM97.6238 123.173L108.664 60.4132L106.694 60.0668L95.654 122.827L97.6238 123.173ZM107.679 61.24H130.359V59.24H107.679V61.24ZM129.373 60.0717L127.693 69.9117L129.665 70.2483L131.345 60.4083L129.373 60.0717ZM129.297 70.8661L141.657 61.1461L140.421 59.5739L128.061 69.2939L129.297 70.8661ZM141.039 61.36H153.519V59.36H141.039V61.36ZM152.534 60.1889L149.054 80.2289L151.024 80.5711L154.504 60.5311L152.534 60.1889ZM150.039 79.4H131.799V81.4H150.039V79.4ZM131.188 79.608L125.428 84.048L126.649 85.632L132.409 81.192L131.188 79.608ZM125.054 84.6666L118.334 122.827L120.304 123.173L127.024 85.0134L125.054 84.6666ZM119.319 122H96.6389V124H119.319V122ZM159.654 53.28L158.669 53.1042L158.46 54.28H159.654V53.28ZM162.654 36.48V35.48H161.817L161.669 36.3042L162.654 36.48ZM185.574 36.48L186.558 36.6558L186.768 35.48H185.574V36.48ZM182.574 53.28V54.28H183.411L183.558 53.4558L182.574 53.28ZM147.534 123L146.549 122.827L146.343 124H147.534V123ZM158.574 60.24V59.24H157.734L157.589 60.0668L158.574 60.24ZM181.254 60.24L182.239 60.4132L182.445 59.24H181.254V60.24ZM170.214 123V124H171.053L171.199 123.173L170.214 123ZM160.638 53.4558L163.638 36.6558L161.669 36.3042L158.669 53.1042L160.638 53.4558ZM162.654 37.48H185.574V35.48H162.654V37.48ZM184.589 36.3042L181.589 53.1042L183.558 53.4558L186.558 36.6558L184.589 36.3042ZM182.574 52.28H159.654V54.28H182.574V52.28ZM148.519 123.173L159.559 60.4132L157.589 60.0668L146.549 122.827L148.519 123.173ZM158.574 61.24H181.254V59.24H158.574V61.24ZM180.269 60.0668L169.229 122.827L171.199 123.173L182.239 60.4132L180.269 60.0668ZM170.214 122H147.534V124H170.214V122ZM196.54 123L195.555 123.175L195.702 124H196.54V123ZM185.38 60.36V59.36H184.186L184.395 60.5354L185.38 60.36ZM210.22 60.36L211.218 60.2945L211.156 59.36H210.22V60.36ZM213.22 106.08L212.222 106.145L212.283 107.08H213.22V106.08ZM217.54 106.08V107.08H218.246L218.482 106.414L217.54 106.08ZM233.74 60.36V59.36H233.033L232.797 60.026L233.74 60.36ZM261.46 60.36L262.343 60.8287L263.123 59.36H261.46V60.36ZM228.22 123V124H228.821L229.103 123.469L228.22 123ZM197.524 122.825L186.364 60.1846L184.395 60.5354L195.555 123.175L197.524 122.825ZM185.38 61.36H210.22V59.36H185.38V61.36ZM209.222 60.4255L212.222 106.145L214.218 106.015L211.218 60.2945L209.222 60.4255ZM213.22 107.08H217.54V105.08H213.22V107.08ZM218.482 106.414L234.682 60.694L232.797 60.026L216.597 105.746L218.482 106.414ZM233.74 61.36H261.46V59.36H233.74V61.36ZM260.577 59.8913L227.337 122.531L229.103 123.469L262.343 60.8287L260.577 59.8913ZM228.22 122H196.54V124H228.22V122ZM265.171 123L264.398 123.634L264.698 124H265.171V123ZM254.251 109.68L253.266 109.509L253.188 109.96L253.478 110.314L254.251 109.68ZM260.491 73.68L259.845 72.9171L259.568 73.1516L259.506 73.5092L260.491 73.68ZM276.211 60.36V59.36H275.845L275.565 59.5971L276.211 60.36ZM311.971 60.36L312.745 59.726L312.445 59.36H311.971V60.36ZM322.891 73.68L323.877 73.8492L323.954 73.3992L323.665 73.046L322.891 73.68ZM318.811 97.44V98.44H319.654L319.797 97.6092L318.811 97.44ZM279.091 97.44V96.44H278.268L278.11 97.248L279.091 97.44ZM278.011 102.96L277.03 102.768L276.937 103.243L277.252 103.611L278.011 102.96ZM281.611 107.16L280.852 107.811L281.151 108.16H281.611V107.16ZM316.051 107.16L317.037 107.332L317.241 106.16H316.051V107.16ZM313.291 123V124H314.132L314.277 123.172L313.291 123ZM281.371 84.48L280.387 84.3053L280.178 85.48H281.371V84.48ZM300.451 84.48V85.48H301.29L301.436 84.6547L300.451 84.48ZM301.771 77.04L302.756 77.2147L302.839 76.7486L302.531 76.3892L301.771 77.04ZM298.171 72.84L298.931 72.1892L298.631 71.84H298.171V72.84ZM287.731 72.84V71.84H287.369L287.091 72.0718L287.731 72.84ZM282.691 77.04L282.051 76.2718L281.771 76.5056L281.707 76.8653L282.691 77.04ZM265.945 122.366L255.025 109.046L253.478 110.314L264.398 123.634L265.945 122.366ZM255.237 109.851L261.477 73.8508L259.506 73.5092L253.266 109.509L255.237 109.851ZM261.138 74.4429L276.858 61.1229L275.565 59.5971L259.845 72.9171L261.138 74.4429ZM276.211 61.36H311.971V59.36H276.211V61.36ZM311.198 60.994L322.118 74.314L323.665 73.046L312.745 59.726L311.198 60.994ZM321.906 73.5108L317.826 97.2708L319.797 97.6092L323.877 73.8492L321.906 73.5108ZM318.811 96.44H279.091V98.44H318.811V96.44ZM278.11 97.248L277.03 102.768L278.993 103.152L280.073 97.632L278.11 97.248ZM277.252 103.611L280.852 107.811L282.371 106.509L278.771 102.309L277.252 103.611ZM281.611 108.16H316.051V106.16H281.611V108.16ZM315.066 106.988L312.306 122.828L314.277 123.172L317.037 107.332L315.066 106.988ZM313.291 122H265.171V124H313.291V122ZM281.371 85.48H300.451V83.48H281.371V85.48ZM301.436 84.6547L302.756 77.2147L300.787 76.8653L299.467 84.3053L301.436 84.6547ZM302.531 76.3892L298.931 72.1892L297.412 73.4908L301.012 77.6908L302.531 76.3892ZM298.171 71.84H287.731V73.84H298.171V71.84ZM287.091 72.0718L282.051 76.2718L283.332 77.8082L288.372 73.6082L287.091 72.0718ZM281.707 76.8653L280.387 84.3053L282.356 84.6547L283.676 77.2147L281.707 76.8653ZM348.714 123L347.729 122.828L347.524 124H348.714V123ZM352.314 102.36L351.722 101.554L351.398 101.792L351.329 102.188L352.314 102.36ZM406.434 62.64L407.026 63.4462L407.349 63.2091L407.419 62.8147L406.434 62.64ZM407.754 55.2L408.739 55.3747L408.818 54.9289L408.535 54.5753L407.754 55.2ZM404.874 51.6L405.655 50.9753L405.355 50.6H404.874V51.6ZM389.034 51.6V50.6H388.664L388.383 50.8407L389.034 51.6ZM384.834 55.2L384.183 54.4407L383.914 54.6718L383.85 55.0211L384.834 55.2ZM383.154 64.44V65.44H383.988L384.138 64.6189L383.154 64.44ZM360.474 64.44L359.49 64.264L359.279 65.44H360.474V64.44ZM363.714 46.32L363.088 45.5404L362.795 45.7751L362.729 46.144L363.714 46.32ZM378.354 34.56V33.56H378.002L377.728 33.7804L378.354 34.56ZM421.434 34.56L422.178 33.8919L421.88 33.56H421.434V34.56ZM431.994 46.32L432.979 46.4941L433.063 46.0143L432.738 45.6519L431.994 46.32ZM427.794 70.08L428.379 70.8912L428.708 70.6538L428.779 70.2541L427.794 70.08ZM379.194 105.12L378.609 104.309L376.097 106.12H379.194V105.12ZM422.274 105.12L423.259 105.292L423.464 104.12H422.274V105.12ZM419.154 123V124H419.995L420.139 123.172L419.154 123ZM349.699 123.172L353.299 102.532L351.329 102.188L347.729 122.828L349.699 123.172ZM352.906 103.166L407.026 63.4462L405.842 61.8338L351.722 101.554L352.906 103.166ZM407.419 62.8147L408.739 55.3747L406.769 55.0253L405.449 62.4653L407.419 62.8147ZM408.535 54.5753L405.655 50.9753L404.093 52.2247L406.973 55.8247L408.535 54.5753ZM404.874 50.6H389.034V52.6H404.874V50.6ZM388.383 50.8407L384.183 54.4407L385.485 55.9593L389.685 52.3593L388.383 50.8407ZM383.85 55.0211L382.17 64.2611L384.138 64.6189L385.818 55.3789L383.85 55.0211ZM383.154 63.44H360.474V65.44H383.154V63.44ZM361.458 64.616L364.698 46.496L362.729 46.144L359.49 64.264L361.458 64.616ZM364.34 47.0996L378.98 35.3396L377.728 33.7804L363.088 45.5404L364.34 47.0996ZM378.354 35.56H421.434V33.56H378.354V35.56ZM420.69 35.2281L431.25 46.9881L432.738 45.6519L422.178 33.8919L420.69 35.2281ZM431.009 46.1459L426.809 69.9059L428.779 70.2541L432.979 46.4941L431.009 46.1459ZM427.209 69.2688L378.609 104.309L379.779 105.931L428.379 70.8912L427.209 69.2688ZM379.194 106.12H422.274V104.12H379.194V106.12ZM421.289 104.948L418.169 122.828L420.139 123.172L423.259 105.292L421.289 104.948ZM419.154 122H348.714V124H419.154V122ZM455.359 123L454.374 122.826L454.167 124H455.359V123ZM470.959 34.56V33.56H470.12L469.974 34.3863L470.959 34.56ZM538.639 34.56L539.624 34.7349L539.833 33.56H538.639V34.56ZM535.399 52.8V53.8H536.237L536.384 52.9749L535.399 52.8ZM490.399 52.8V51.8H489.56L489.414 52.6262L490.399 52.8ZM487.519 69.12L486.534 68.9462L486.327 70.12H487.519V69.12ZM528.079 69.12L529.065 69.2878L529.264 68.12H528.079V69.12ZM525.199 86.04V87.04H526.043L526.185 86.2078L525.199 86.04ZM484.519 86.04V85.04H483.677L483.534 85.8695L484.519 86.04ZM481.279 104.76L480.294 104.589L480.091 105.76H481.279V104.76ZM526.279 104.76L527.264 104.935L527.473 103.76H526.279V104.76ZM523.039 123V124H523.877L524.024 123.175L523.039 123ZM456.344 123.174L471.944 34.7337L469.974 34.3863L454.374 122.826L456.344 123.174ZM470.959 35.56H538.639V33.56H470.959V35.56ZM537.655 34.3851L534.415 52.6251L536.384 52.9749L539.624 34.7349L537.655 34.3851ZM535.399 51.8H490.399V53.8H535.399V51.8ZM489.414 52.6262L486.534 68.9462L488.504 69.2938L491.384 52.9738L489.414 52.6262ZM487.519 70.12H528.079V68.12H487.519V70.12ZM527.093 68.9522L524.213 85.8722L526.185 86.2078L529.065 69.2878L527.093 68.9522ZM525.199 85.04H484.519V87.04H525.199V85.04ZM483.534 85.8695L480.294 104.589L482.265 104.931L485.505 86.2105L483.534 85.8695ZM481.279 105.76H526.279V103.76H481.279V105.76ZM525.295 104.585L522.055 122.825L524.024 123.175L527.264 104.935L525.295 104.585ZM523.039 122H455.359V124H523.039V122ZM524.322 123L523.418 122.571L522.74 124H524.322V123ZM566.322 34.56V33.56H565.69L565.418 34.131L566.322 34.56ZM602.922 34.56L603.915 34.4468L603.814 33.56H602.922V34.56ZM613.002 123V124H614.122L613.995 122.887L613.002 123ZM590.202 123L589.204 123.075L589.274 124H590.202V123ZM588.882 105.36L589.879 105.285L589.81 104.36H588.882V105.36ZM557.322 105.36V104.36H556.658L556.4 104.971L557.322 105.36ZM549.882 123V124H550.545L550.803 123.389L549.882 123ZM564.402 88.08L563.484 87.6828L562.879 89.08H564.402V88.08ZM587.442 88.08V89.08H588.523L588.439 88.0016L587.442 88.08ZM584.562 51.48L585.559 51.4016L585.486 50.48H584.562V51.48ZM580.242 51.48V50.48H579.585L579.324 51.0828L580.242 51.48ZM525.225 123.429L567.225 34.989L565.418 34.131L523.418 122.571L525.225 123.429ZM566.322 35.56H602.922V33.56H566.322V35.56ZM601.928 34.6732L612.008 123.113L613.995 122.887L603.915 34.4468L601.928 34.6732ZM613.002 122H590.202V124H613.002V122ZM591.199 122.925L589.879 105.285L587.884 105.435L589.204 123.075L591.199 122.925ZM588.882 104.36H557.322V106.36H588.882V104.36ZM556.4 104.971L548.96 122.611L550.803 123.389L558.243 105.749L556.4 104.971ZM549.882 122H524.322V124H549.882V122ZM564.402 89.08H587.442V87.08H564.402V89.08ZM588.439 88.0016L585.559 51.4016L583.565 51.5584L586.445 88.1584L588.439 88.0016ZM584.562 50.48H580.242V52.48H584.562V50.48ZM579.324 51.0828L563.484 87.6828L565.319 88.4772L581.159 51.8772L579.324 51.0828ZM618.081 123L617.096 122.826L616.889 124H618.081V123ZM633.681 34.56V33.56H632.842L632.696 34.3863L633.681 34.56ZM694.401 34.56L695.168 33.9178L694.868 33.56H694.401V34.56ZM705.561 47.88L706.546 48.0553L706.627 47.5956L706.328 47.2378L705.561 47.88ZM699.921 79.56L700.567 80.3234L700.842 80.0904L700.906 79.7353L699.921 79.56ZM687.441 90.12L686.795 89.3566L686.33 89.7502L686.466 90.3441L687.441 90.12ZM695.001 123V124H696.257L695.976 122.776L695.001 123ZM673.521 123L672.543 123.207L672.71 124H673.521V123ZM667.161 92.88L668.14 92.6734L667.972 91.88H667.161V92.88ZM646.041 92.88V91.88H645.201L645.056 92.7073L646.041 92.88ZM640.761 123V124H641.601L641.746 123.173L640.761 123ZM649.041 75.84L648.057 75.6645L647.847 76.84H649.041V75.84ZM674.241 75.84V76.84H674.603L674.881 76.6082L674.241 75.84ZM679.281 71.64L679.921 72.4082L680.203 72.1732L680.266 71.8117L679.281 71.64ZM682.041 55.8L683.026 55.9717L683.105 55.5172L682.811 55.162L682.041 55.8ZM678.561 51.6L679.331 50.962L679.031 50.6H678.561V51.6ZM653.361 51.6V50.6H652.524L652.377 51.4245L653.361 51.6ZM619.066 123.174L634.666 34.7337L632.696 34.3863L617.096 122.826L619.066 123.174ZM633.681 35.56H694.401V33.56H633.681V35.56ZM693.635 35.2022L704.795 48.5222L706.328 47.2378L695.168 33.9178L693.635 35.2022ZM704.577 47.7047L698.937 79.3847L700.906 79.7353L706.546 48.0553L704.577 47.7047ZM699.275 78.7966L686.795 89.3566L688.087 90.8834L700.567 80.3234L699.275 78.7966ZM686.466 90.3441L694.026 123.224L695.976 122.776L688.416 89.8959L686.466 90.3441ZM695.001 122H673.521V124H695.001V122ZM674.5 122.793L668.14 92.6734L666.183 93.0866L672.543 123.207L674.5 122.793ZM667.161 91.88H646.041V93.88H667.161V91.88ZM645.056 92.7073L639.776 122.827L641.746 123.173L647.026 93.0527L645.056 92.7073ZM640.761 122H618.081V124H640.761V122ZM649.041 76.84H674.241V74.84H649.041V76.84ZM674.881 76.6082L679.921 72.4082L678.641 70.8718L673.601 75.0718L674.881 76.6082ZM680.266 71.8117L683.026 55.9717L681.056 55.6283L678.296 71.4683L680.266 71.8117ZM682.811 55.162L679.331 50.962L677.791 52.238L681.271 56.438L682.811 55.162ZM678.561 50.6H653.361V52.6H678.561V50.6ZM652.377 51.4245L648.057 75.6645L650.026 76.0154L654.346 51.7755L652.377 51.4245ZM703.544 123L702.559 122.826L702.352 124H703.544V123ZM719.144 34.56V33.56H718.305L718.159 34.3863L719.144 34.56ZM742.424 34.56L743.357 34.2005L743.11 33.56H742.424V34.56ZM763.784 90L762.85 90.3595L764.141 93.7089L764.768 90.1748L763.784 90ZM773.624 34.56V33.56H772.785L772.639 34.3852L773.624 34.56ZM794.744 34.56L795.728 34.7337L795.935 33.56H794.744V34.56ZM779.144 123V124H779.983L780.128 123.174L779.144 123ZM758.024 123L757.09 123.359L757.337 124H758.024V123ZM738.104 71.16L739.037 70.8013L738.791 70.16H738.104V71.16ZM733.784 71.16V70.16H732.944L732.799 70.9867L733.784 71.16ZM724.664 123V124H725.503L725.648 123.173L724.664 123ZM704.528 123.174L720.128 34.7337L718.159 34.3863L702.559 122.826L704.528 123.174ZM719.144 35.56H742.424V33.56H719.144V35.56ZM741.49 34.9195L762.85 90.3595L764.717 89.6405L743.357 34.2005L741.49 34.9195ZM764.768 90.1748L774.608 34.7348L772.639 34.3852L762.799 89.8252L764.768 90.1748ZM773.624 35.56H794.744V33.56H773.624V35.56ZM793.759 34.3863L778.159 122.826L780.128 123.174L795.728 34.7337L793.759 34.3863ZM779.144 122H758.024V124H779.144V122ZM758.957 122.641L739.037 70.8013L737.17 71.5187L757.09 123.359L758.957 122.641ZM738.104 70.16H733.784V72.16H738.104V70.16ZM732.799 70.9867L723.679 122.827L725.648 123.173L734.768 71.3333L732.799 70.9867ZM724.664 122H703.544V124H724.664V122ZM808.75 123L807.847 122.571L807.168 124H808.75V123ZM850.75 34.56V33.56H850.118L849.847 34.131L850.75 34.56ZM887.35 34.56L888.343 34.4468L888.242 33.56H887.35V34.56ZM897.43 123V124H898.55L898.423 122.887L897.43 123ZM874.63 123L873.633 123.075L873.702 124H874.63V123ZM873.31 105.36L874.307 105.285L874.238 104.36H873.31V105.36ZM841.75 105.36V104.36H841.086L840.828 104.971L841.75 105.36ZM834.31 123V124H834.973L835.231 123.389L834.31 123ZM848.83 88.08L847.912 87.6828L847.307 89.08H848.83V88.08ZM871.87 88.08V89.08H872.952L872.867 88.0016L871.87 88.08ZM868.99 51.48L869.987 51.4016L869.914 50.48H868.99V51.48ZM864.67 51.48V50.48H864.013L863.752 51.0828L864.67 51.48ZM809.653 123.429L851.653 34.989L849.847 34.131L807.847 122.571L809.653 123.429ZM850.75 35.56H887.35V33.56H850.75V35.56ZM886.356 34.6732L896.436 123.113L898.423 122.887L888.343 34.4468L886.356 34.6732ZM897.43 122H874.63V124H897.43V122ZM875.627 122.925L874.307 105.285L872.313 105.435L873.633 123.075L875.627 122.925ZM873.31 104.36H841.75V106.36H873.31V104.36ZM840.828 104.971L833.388 122.611L835.231 123.389L842.671 105.749L840.828 104.971ZM834.31 122H808.75V124H834.31V122ZM848.83 89.08H871.87V87.08H848.83V89.08ZM872.867 88.0016L869.987 51.4016L867.993 51.5584L870.873 88.1584L872.867 88.0016ZM868.99 50.48H864.67V52.48H868.99V50.48ZM863.752 51.0828L847.912 87.6828L849.748 88.4772L865.588 51.8772L863.752 51.0828ZM902.509 123L901.524 122.826L901.317 124H902.509V123ZM918.109 34.56V33.56H917.27L917.124 34.3863L918.109 34.56ZM977.749 34.56L978.519 33.9219L978.219 33.56H977.749V34.56ZM988.789 47.88L989.774 48.0534L989.854 47.5979L989.559 47.2419L988.789 47.88ZM982.789 81.96L983.436 82.7229L983.711 82.4893L983.774 82.1334L982.789 81.96ZM967.069 95.28V96.28H967.436L967.716 96.0429L967.069 95.28ZM930.109 95.28V94.28H929.271L929.125 95.1052L930.109 95.28ZM925.189 123V124H926.027L926.174 123.175L925.189 123ZM933.109 78.24L932.124 78.067L931.918 79.24H933.109V78.24ZM957.229 78.24V79.24H957.598L957.878 79.0006L957.229 78.24ZM962.149 74.04L962.798 74.8006L963.071 74.5678L963.134 74.2149L962.149 74.04ZM965.389 55.8L966.374 55.9749L966.455 55.5187L966.159 55.162L965.389 55.8ZM961.909 51.6L962.679 50.962L962.379 50.6H961.909V51.6ZM937.789 51.6V50.6H936.95L936.804 51.427L937.789 51.6ZM903.494 123.174L919.094 34.7337L917.124 34.3863L901.524 122.826L903.494 123.174ZM918.109 35.56H977.749V33.56H918.109V35.56ZM976.979 35.1981L988.019 48.5181L989.559 47.2419L978.519 33.9219L976.979 35.1981ZM987.804 47.7066L981.804 81.7866L983.774 82.1334L989.774 48.0534L987.804 47.7066ZM982.143 81.1971L966.423 94.5171L967.716 96.0429L983.436 82.7229L982.143 81.1971ZM967.069 94.28H930.109V96.28H967.069V94.28ZM929.125 95.1052L924.205 122.825L926.174 123.175L931.094 95.4548L929.125 95.1052ZM925.189 122H902.509V124H925.189V122ZM933.109 79.24H957.229V77.24H933.109V79.24ZM957.878 79.0006L962.798 74.8006L961.5 73.2794L956.58 77.4794L957.878 79.0006ZM963.134 74.2149L966.374 55.9749L964.405 55.6251L961.165 73.8651L963.134 74.2149ZM966.159 55.162L962.679 50.962L961.139 52.238L964.619 56.438L966.159 55.162ZM961.909 50.6H937.789V52.6H961.909V50.6ZM936.804 51.427L932.124 78.067L934.094 78.413L938.774 51.773L936.804 51.427ZM981.644 123L980.659 122.826L980.452 124H981.644V123ZM997.244 34.56V33.56H996.405L996.259 34.3863L997.244 34.56ZM1056.88 34.56L1057.65 33.9219L1057.35 33.56H1056.88V34.56ZM1067.92 47.88L1068.91 48.0534L1068.99 47.5979L1068.69 47.2419L1067.92 47.88ZM1061.92 81.96L1062.57 82.7229L1062.85 82.4893L1062.91 82.1334L1061.92 81.96ZM1046.2 95.28V96.28H1046.57L1046.85 96.0429L1046.2 95.28ZM1009.24 95.28V94.28H1008.41L1008.26 95.1052L1009.24 95.28ZM1004.32 123V124H1005.16L1005.31 123.175L1004.32 123ZM1012.24 78.24L1011.26 78.067L1011.05 79.24H1012.24V78.24ZM1036.36 78.24V79.24H1036.73L1037.01 79.0006L1036.36 78.24ZM1041.28 74.04L1041.93 74.8006L1042.21 74.5678L1042.27 74.2149L1041.28 74.04ZM1044.52 55.8L1045.51 55.9749L1045.59 55.5187L1045.29 55.162L1044.52 55.8ZM1041.04 51.6L1041.81 50.962L1041.51 50.6H1041.04V51.6ZM1016.92 51.6V50.6H1016.08L1015.94 51.427L1016.92 51.6ZM982.628 123.174L998.228 34.7337L996.259 34.3863L980.659 122.826L982.628 123.174ZM997.244 35.56H1056.88V33.56H997.244V35.56ZM1056.11 35.1981L1067.15 48.5181L1068.69 47.2419L1057.65 33.9219L1056.11 35.1981ZM1066.94 47.7066L1060.94 81.7866L1062.91 82.1334L1068.91 48.0534L1066.94 47.7066ZM1061.28 81.1971L1045.56 94.5171L1046.85 96.0429L1062.57 82.7229L1061.28 81.1971ZM1046.2 94.28H1009.24V96.28H1046.2V94.28ZM1008.26 95.1052L1003.34 122.825L1005.31 123.175L1010.23 95.4548L1008.26 95.1052ZM1004.32 122H981.644V124H1004.32V122ZM1012.24 79.24H1036.36V77.24H1012.24V79.24ZM1037.01 79.0006L1041.93 74.8006L1040.63 73.2794L1035.71 77.4794L1037.01 79.0006ZM1042.27 74.2149L1045.51 55.9749L1043.54 55.6251L1040.3 73.8651L1042.27 74.2149ZM1045.29 55.162L1041.81 50.962L1040.27 52.238L1043.75 56.438L1045.29 55.162ZM1041.04 50.6H1016.92V52.6H1041.04V50.6ZM1015.94 51.427L1011.26 78.067L1013.23 78.413L1017.91 51.773L1015.94 51.427Z"
                fill="#11D9EB"
              />
            </g>
            <g filter="url(#filter2_b_218_1439)">
              <path
                d="M8.54202 120L24.142 31.56H82.342L97.462 49.92L88.342 101.64L66.742 120H8.54202ZM34.222 102.96H59.782L67.342 96.6L74.662 54.96L69.382 48.6H43.822L34.222 102.96ZM93.6389 120L104.679 57.24H127.359L125.679 67.08L138.039 57.36H150.519L147.039 77.4H128.799L123.039 81.84L116.319 120H93.6389ZM156.654 50.28L159.654 33.48H182.574L179.574 50.28H156.654ZM144.534 120L155.574 57.24H178.254L167.214 120H144.534ZM193.54 120L182.38 57.36H207.22L210.22 103.08H214.54L230.74 57.36H258.46L225.22 120H193.54ZM262.171 120L251.251 106.68L257.491 70.68L273.211 57.36H308.971L319.891 70.68L315.811 94.44H276.091L275.011 99.96L278.611 104.16H313.051L310.291 120H262.171ZM278.371 81.48H297.451L298.771 74.04L295.171 69.84H284.731L279.691 74.04L278.371 81.48ZM345.714 120L349.314 99.36L403.434 59.64L404.754 52.2L401.874 48.6H386.034L381.834 52.2L380.154 61.44H357.474L360.714 43.32L375.354 31.56H418.434L428.994 43.32L424.794 67.08L376.194 102.12H419.274L416.154 120H345.714ZM452.359 120L467.959 31.56H535.639L532.399 49.8H487.399L484.519 66.12H525.079L522.199 83.04H481.519L478.279 101.76H523.279L520.039 120H452.359ZM521.322 120L563.322 31.56H599.922L610.002 120H587.202L585.882 102.36H554.322L546.882 120H521.322ZM561.402 85.08H584.442L581.562 48.48H577.242L561.402 85.08ZM615.081 120L630.681 31.56H691.401L702.561 44.88L696.921 76.56L684.441 87.12L692.001 120H670.521L664.161 89.88H643.041L637.761 120H615.081ZM646.041 72.84H671.241L676.281 68.64L679.041 52.8L675.561 48.6H650.361L646.041 72.84ZM700.544 120L716.144 31.56H739.424L760.784 87L770.624 31.56H791.744L776.144 120H755.024L735.104 68.16H730.784L721.664 120H700.544ZM805.75 120L847.75 31.56H884.35L894.43 120H871.63L870.31 102.36H838.75L831.31 120H805.75ZM845.83 85.08H868.87L865.99 48.48H861.67L845.83 85.08ZM899.509 120L915.109 31.56H974.749L985.789 44.88L979.789 78.96L964.069 92.28H927.109L922.189 120H899.509ZM930.109 75.24H954.229L959.149 71.04L962.389 52.8L958.909 48.6H934.789L930.109 75.24ZM978.644 120L994.244 31.56H1053.88L1064.92 44.88L1058.92 78.96L1043.2 92.28H1006.24L1001.32 120H978.644ZM1009.24 75.24H1033.36L1038.28 71.04L1041.52 52.8L1038.04 48.6H1013.92L1009.24 75.24Z"
                fill="url(#paint1_linear_218_1439)"
              />
              <path
                d="M8.54202 120L7.55722 119.826L7.35019 121H8.54202V120ZM24.142 31.56V30.56H23.303L23.1572 31.3863L24.142 31.56ZM82.342 31.56L83.114 30.9243L82.8139 30.56H82.342V31.56ZM97.462 49.92L98.4468 50.0936L98.5268 49.6399L98.2339 49.2843L97.462 49.92ZM88.342 101.64L88.9897 102.402L89.2643 102.169L89.3268 101.814L88.342 101.64ZM66.742 120V121H67.1096L67.3897 120.762L66.742 120ZM34.222 102.96L33.2373 102.786L33.0299 103.96H34.222V102.96ZM59.782 102.96V103.96H60.1467L60.4258 103.725L59.782 102.96ZM67.342 96.6L67.9858 97.3652L68.264 97.1312L68.3269 96.7731L67.342 96.6ZM74.662 54.96L75.6469 55.1331L75.727 54.6773L75.4314 54.3212L74.662 54.96ZM69.382 48.6L70.1514 47.9612L69.8515 47.6H69.382V48.6ZM43.822 48.6V47.6H42.9831L42.8373 48.4261L43.822 48.6ZM9.52682 120.174L25.1268 31.7337L23.1572 31.3863L7.55722 119.826L9.52682 120.174ZM24.142 32.56H82.342V30.56H24.142V32.56ZM81.5701 32.1957L96.6901 50.5557L98.2339 49.2843L83.114 30.9243L81.5701 32.1957ZM96.4772 49.7463L87.3572 101.466L89.3268 101.814L98.4468 50.0936L96.4772 49.7463ZM87.6944 100.878L66.0944 119.238L67.3897 120.762L88.9897 102.402L87.6944 100.878ZM66.742 119H8.54202V121H66.742V119ZM34.222 103.96H59.782V101.96H34.222V103.96ZM60.4258 103.725L67.9858 97.3652L66.6983 95.8348L59.1383 102.195L60.4258 103.725ZM68.3269 96.7731L75.6469 55.1331L73.6771 54.7869L66.3571 96.4269L68.3269 96.7731ZM75.4314 54.3212L70.1514 47.9612L68.6126 49.2388L73.8926 55.5987L75.4314 54.3212ZM69.382 47.6H43.822V49.6H69.382V47.6ZM42.8373 48.4261L33.2373 102.786L35.2068 103.134L44.8068 48.7739L42.8373 48.4261ZM93.6389 120L92.654 119.827L92.4476 121H93.6389V120ZM104.679 57.24V56.24H103.839L103.694 57.0668L104.679 57.24ZM127.359 57.24L128.345 57.4083L128.544 56.24H127.359V57.24ZM125.679 67.08L124.693 66.9117L124.256 69.471L126.297 67.8661L125.679 67.08ZM138.039 57.36V56.36H137.693L137.421 56.5739L138.039 57.36ZM150.519 57.36L151.504 57.5311L151.708 56.36H150.519V57.36ZM147.039 77.4V78.4H147.88L148.024 77.5711L147.039 77.4ZM128.799 77.4V76.4H128.458L128.188 76.608L128.799 77.4ZM123.039 81.84L122.428 81.048L122.121 81.2847L122.054 81.6666L123.039 81.84ZM116.319 120V121H117.158L117.304 120.173L116.319 120ZM94.6238 120.173L105.664 57.4132L103.694 57.0668L92.654 119.827L94.6238 120.173ZM104.679 58.24H127.359V56.24H104.679V58.24ZM126.373 57.0717L124.693 66.9117L126.665 67.2483L128.345 57.4083L126.373 57.0717ZM126.297 67.8661L138.657 58.1461L137.421 56.5739L125.061 66.2939L126.297 67.8661ZM138.039 58.36H150.519V56.36H138.039V58.36ZM149.534 57.1889L146.054 77.2289L148.024 77.5711L151.504 57.5311L149.534 57.1889ZM147.039 76.4H128.799V78.4H147.039V76.4ZM128.188 76.608L122.428 81.048L123.649 82.632L129.409 78.192L128.188 76.608ZM122.054 81.6666L115.334 119.827L117.304 120.173L124.024 82.0134L122.054 81.6666ZM116.319 119H93.6389V121H116.319V119ZM156.654 50.28L155.669 50.1042L155.46 51.28H156.654V50.28ZM159.654 33.48V32.48H158.817L158.669 33.3042L159.654 33.48ZM182.574 33.48L183.558 33.6558L183.768 32.48H182.574V33.48ZM179.574 50.28V51.28H180.411L180.558 50.4558L179.574 50.28ZM144.534 120L143.549 119.827L143.343 121H144.534V120ZM155.574 57.24V56.24H154.734L154.589 57.0668L155.574 57.24ZM178.254 57.24L179.239 57.4132L179.445 56.24H178.254V57.24ZM167.214 120V121H168.053L168.199 120.173L167.214 120ZM157.638 50.4558L160.638 33.6558L158.669 33.3042L155.669 50.1042L157.638 50.4558ZM159.654 34.48H182.574V32.48H159.654V34.48ZM181.589 33.3042L178.589 50.1042L180.558 50.4558L183.558 33.6558L181.589 33.3042ZM179.574 49.28H156.654V51.28H179.574V49.28ZM145.519 120.173L156.559 57.4132L154.589 57.0668L143.549 119.827L145.519 120.173ZM155.574 58.24H178.254V56.24H155.574V58.24ZM177.269 57.0668L166.229 119.827L168.199 120.173L179.239 57.4132L177.269 57.0668ZM167.214 119H144.534V121H167.214V119ZM193.54 120L192.555 120.175L192.702 121H193.54V120ZM182.38 57.36V56.36H181.186L181.395 57.5354L182.38 57.36ZM207.22 57.36L208.218 57.2945L208.156 56.36H207.22V57.36ZM210.22 103.08L209.222 103.145L209.283 104.08H210.22V103.08ZM214.54 103.08V104.08H215.246L215.482 103.414L214.54 103.08ZM230.74 57.36V56.36H230.033L229.797 57.026L230.74 57.36ZM258.46 57.36L259.343 57.8287L260.123 56.36H258.46V57.36ZM225.22 120V121H225.821L226.103 120.469L225.22 120ZM194.524 119.825L183.364 57.1846L181.395 57.5354L192.555 120.175L194.524 119.825ZM182.38 58.36H207.22V56.36H182.38V58.36ZM206.222 57.4255L209.222 103.145L211.218 103.015L208.218 57.2945L206.222 57.4255ZM210.22 104.08H214.54V102.08H210.22V104.08ZM215.482 103.414L231.682 57.694L229.797 57.026L213.597 102.746L215.482 103.414ZM230.74 58.36H258.46V56.36H230.74V58.36ZM257.577 56.8913L224.337 119.531L226.103 120.469L259.343 57.8287L257.577 56.8913ZM225.22 119H193.54V121H225.22V119ZM262.171 120L261.398 120.634L261.698 121H262.171V120ZM251.251 106.68L250.266 106.509L250.188 106.96L250.478 107.314L251.251 106.68ZM257.491 70.68L256.845 69.9171L256.568 70.1516L256.506 70.5092L257.491 70.68ZM273.211 57.36V56.36H272.845L272.565 56.5971L273.211 57.36ZM308.971 57.36L309.745 56.726L309.445 56.36H308.971V57.36ZM319.891 70.68L320.877 70.8492L320.954 70.3992L320.665 70.046L319.891 70.68ZM315.811 94.44V95.44H316.654L316.797 94.6092L315.811 94.44ZM276.091 94.44V93.44H275.268L275.11 94.248L276.091 94.44ZM275.011 99.96L274.03 99.768L273.937 100.243L274.252 100.611L275.011 99.96ZM278.611 104.16L277.852 104.811L278.151 105.16H278.611V104.16ZM313.051 104.16L314.037 104.332L314.241 103.16H313.051V104.16ZM310.291 120V121H311.132L311.277 120.172L310.291 120ZM278.371 81.48L277.387 81.3053L277.178 82.48H278.371V81.48ZM297.451 81.48V82.48H298.29L298.436 81.6547L297.451 81.48ZM298.771 74.04L299.756 74.2147L299.839 73.7486L299.531 73.3892L298.771 74.04ZM295.171 69.84L295.931 69.1892L295.631 68.84H295.171V69.84ZM284.731 69.84V68.84H284.369L284.091 69.0718L284.731 69.84ZM279.691 74.04L279.051 73.2718L278.771 73.5056L278.707 73.8653L279.691 74.04ZM262.945 119.366L252.025 106.046L250.478 107.314L261.398 120.634L262.945 119.366ZM252.237 106.851L258.477 70.8508L256.506 70.5092L250.266 106.509L252.237 106.851ZM258.138 71.4429L273.858 58.1229L272.565 56.5971L256.845 69.9171L258.138 71.4429ZM273.211 58.36H308.971V56.36H273.211V58.36ZM308.198 57.994L319.118 71.314L320.665 70.046L309.745 56.726L308.198 57.994ZM318.906 70.5108L314.826 94.2708L316.797 94.6092L320.877 70.8492L318.906 70.5108ZM315.811 93.44H276.091V95.44H315.811V93.44ZM275.11 94.248L274.03 99.768L275.993 100.152L277.073 94.632L275.11 94.248ZM274.252 100.611L277.852 104.811L279.371 103.509L275.771 99.3092L274.252 100.611ZM278.611 105.16H313.051V103.16H278.611V105.16ZM312.066 103.988L309.306 119.828L311.277 120.172L314.037 104.332L312.066 103.988ZM310.291 119H262.171V121H310.291V119ZM278.371 82.48H297.451V80.48H278.371V82.48ZM298.436 81.6547L299.756 74.2147L297.787 73.8653L296.467 81.3053L298.436 81.6547ZM299.531 73.3892L295.931 69.1892L294.412 70.4908L298.012 74.6908L299.531 73.3892ZM295.171 68.84H284.731V70.84H295.171V68.84ZM284.091 69.0718L279.051 73.2718L280.332 74.8082L285.372 70.6082L284.091 69.0718ZM278.707 73.8653L277.387 81.3053L279.356 81.6547L280.676 74.2147L278.707 73.8653ZM345.714 120L344.729 119.828L344.524 121H345.714V120ZM349.314 99.36L348.722 98.5538L348.398 98.7919L348.329 99.1882L349.314 99.36ZM403.434 59.64L404.026 60.4462L404.349 60.2091L404.419 59.8147L403.434 59.64ZM404.754 52.2L405.739 52.3747L405.818 51.9289L405.535 51.5753L404.754 52.2ZM401.874 48.6L402.655 47.9753L402.355 47.6H401.874V48.6ZM386.034 48.6V47.6H385.664L385.383 47.8407L386.034 48.6ZM381.834 52.2L381.183 51.4407L380.914 51.6718L380.85 52.0211L381.834 52.2ZM380.154 61.44V62.44H380.988L381.138 61.6189L380.154 61.44ZM357.474 61.44L356.49 61.264L356.279 62.44H357.474V61.44ZM360.714 43.32L360.088 42.5404L359.795 42.7751L359.729 43.144L360.714 43.32ZM375.354 31.56V30.56H375.002L374.728 30.7804L375.354 31.56ZM418.434 31.56L419.178 30.8919L418.88 30.56H418.434V31.56ZM428.994 43.32L429.979 43.4941L430.063 43.0143L429.738 42.6519L428.994 43.32ZM424.794 67.08L425.379 67.8912L425.708 67.6538L425.779 67.2541L424.794 67.08ZM376.194 102.12L375.609 101.309L373.097 103.12H376.194V102.12ZM419.274 102.12L420.259 102.292L420.464 101.12H419.274V102.12ZM416.154 120V121H416.995L417.139 120.172L416.154 120ZM346.699 120.172L350.299 99.5318L348.329 99.1882L344.729 119.828L346.699 120.172ZM349.906 100.166L404.026 60.4462L402.842 58.8338L348.722 98.5538L349.906 100.166ZM404.419 59.8147L405.739 52.3747L403.769 52.0253L402.449 59.4653L404.419 59.8147ZM405.535 51.5753L402.655 47.9753L401.093 49.2247L403.973 52.8247L405.535 51.5753ZM401.874 47.6H386.034V49.6H401.874V47.6ZM385.383 47.8407L381.183 51.4407L382.485 52.9593L386.685 49.3593L385.383 47.8407ZM380.85 52.0211L379.17 61.2611L381.138 61.6189L382.818 52.3789L380.85 52.0211ZM380.154 60.44H357.474V62.44H380.154V60.44ZM358.458 61.616L361.698 43.496L359.729 43.144L356.49 61.264L358.458 61.616ZM361.34 44.0996L375.98 32.3396L374.728 30.7804L360.088 42.5404L361.34 44.0996ZM375.354 32.56H418.434V30.56H375.354V32.56ZM417.69 32.2281L428.25 43.9881L429.738 42.6519L419.178 30.8919L417.69 32.2281ZM428.009 43.1459L423.809 66.9059L425.779 67.2541L429.979 43.4941L428.009 43.1459ZM424.209 66.2688L375.609 101.309L376.779 102.931L425.379 67.8912L424.209 66.2688ZM376.194 103.12H419.274V101.12H376.194V103.12ZM418.289 101.948L415.169 119.828L417.139 120.172L420.259 102.292L418.289 101.948ZM416.154 119H345.714V121H416.154V119ZM452.359 120L451.374 119.826L451.167 121H452.359V120ZM467.959 31.56V30.56H467.12L466.974 31.3863L467.959 31.56ZM535.639 31.56L536.624 31.7349L536.833 30.56H535.639V31.56ZM532.399 49.8V50.8H533.237L533.384 49.9749L532.399 49.8ZM487.399 49.8V48.8H486.56L486.414 49.6262L487.399 49.8ZM484.519 66.12L483.534 65.9462L483.327 67.12H484.519V66.12ZM525.079 66.12L526.065 66.2878L526.264 65.12H525.079V66.12ZM522.199 83.04V84.04H523.043L523.185 83.2078L522.199 83.04ZM481.519 83.04V82.04H480.677L480.534 82.8695L481.519 83.04ZM478.279 101.76L477.294 101.589L477.091 102.76H478.279V101.76ZM523.279 101.76L524.264 101.935L524.473 100.76H523.279V101.76ZM520.039 120V121H520.877L521.024 120.175L520.039 120ZM453.344 120.174L468.944 31.7337L466.974 31.3863L451.374 119.826L453.344 120.174ZM467.959 32.56H535.639V30.56H467.959V32.56ZM534.655 31.3851L531.415 49.6251L533.384 49.9749L536.624 31.7349L534.655 31.3851ZM532.399 48.8H487.399V50.8H532.399V48.8ZM486.414 49.6262L483.534 65.9462L485.504 66.2938L488.384 49.9738L486.414 49.6262ZM484.519 67.12H525.079V65.12H484.519V67.12ZM524.093 65.9522L521.213 82.8722L523.185 83.2078L526.065 66.2878L524.093 65.9522ZM522.199 82.04H481.519V84.04H522.199V82.04ZM480.534 82.8695L477.294 101.589L479.265 101.931L482.505 83.2105L480.534 82.8695ZM478.279 102.76H523.279V100.76H478.279V102.76ZM522.295 101.585L519.055 119.825L521.024 120.175L524.264 101.935L522.295 101.585ZM520.039 119H452.359V121H520.039V119ZM521.322 120L520.418 119.571L519.74 121H521.322V120ZM563.322 31.56V30.56H562.69L562.418 31.131L563.322 31.56ZM599.922 31.56L600.915 31.4468L600.814 30.56H599.922V31.56ZM610.002 120V121H611.122L610.995 119.887L610.002 120ZM587.202 120L586.204 120.075L586.274 121H587.202V120ZM585.882 102.36L586.879 102.285L586.81 101.36H585.882V102.36ZM554.322 102.36V101.36H553.658L553.4 101.971L554.322 102.36ZM546.882 120V121H547.545L547.803 120.389L546.882 120ZM561.402 85.08L560.484 84.6828L559.879 86.08H561.402V85.08ZM584.442 85.08V86.08H585.523L585.439 85.0016L584.442 85.08ZM581.562 48.48L582.559 48.4016L582.486 47.48H581.562V48.48ZM577.242 48.48V47.48H576.585L576.324 48.0828L577.242 48.48ZM522.225 120.429L564.225 31.989L562.418 31.131L520.418 119.571L522.225 120.429ZM563.322 32.56H599.922V30.56H563.322V32.56ZM598.928 31.6732L609.008 120.113L610.995 119.887L600.915 31.4468L598.928 31.6732ZM610.002 119H587.202V121H610.002V119ZM588.199 119.925L586.879 102.285L584.884 102.435L586.204 120.075L588.199 119.925ZM585.882 101.36H554.322V103.36H585.882V101.36ZM553.4 101.971L545.96 119.611L547.803 120.389L555.243 102.749L553.4 101.971ZM546.882 119H521.322V121H546.882V119ZM561.402 86.08H584.442V84.08H561.402V86.08ZM585.439 85.0016L582.559 48.4016L580.565 48.5584L583.445 85.1584L585.439 85.0016ZM581.562 47.48H577.242V49.48H581.562V47.48ZM576.324 48.0828L560.484 84.6828L562.319 85.4772L578.159 48.8772L576.324 48.0828ZM615.081 120L614.096 119.826L613.889 121H615.081V120ZM630.681 31.56V30.56H629.842L629.696 31.3863L630.681 31.56ZM691.401 31.56L692.168 30.9178L691.868 30.56H691.401V31.56ZM702.561 44.88L703.546 45.0553L703.627 44.5956L703.328 44.2378L702.561 44.88ZM696.921 76.56L697.567 77.3234L697.842 77.0904L697.906 76.7353L696.921 76.56ZM684.441 87.12L683.795 86.3566L683.33 86.7502L683.466 87.3441L684.441 87.12ZM692.001 120V121H693.257L692.976 119.776L692.001 120ZM670.521 120L669.543 120.207L669.71 121H670.521V120ZM664.161 89.88L665.14 89.6734L664.972 88.88H664.161V89.88ZM643.041 89.88V88.88H642.201L642.056 89.7073L643.041 89.88ZM637.761 120V121H638.601L638.746 120.173L637.761 120ZM646.041 72.84L645.057 72.6645L644.847 73.84H646.041V72.84ZM671.241 72.84V73.84H671.603L671.881 73.6082L671.241 72.84ZM676.281 68.64L676.921 69.4082L677.203 69.1732L677.266 68.8117L676.281 68.64ZM679.041 52.8L680.026 52.9717L680.105 52.5172L679.811 52.162L679.041 52.8ZM675.561 48.6L676.331 47.962L676.031 47.6H675.561V48.6ZM650.361 48.6V47.6H649.524L649.377 48.4245L650.361 48.6ZM616.066 120.174L631.666 31.7337L629.696 31.3863L614.096 119.826L616.066 120.174ZM630.681 32.56H691.401V30.56H630.681V32.56ZM690.635 32.2022L701.795 45.5222L703.328 44.2378L692.168 30.9178L690.635 32.2022ZM701.577 44.7047L695.937 76.3847L697.906 76.7353L703.546 45.0553L701.577 44.7047ZM696.275 75.7966L683.795 86.3566L685.087 87.8834L697.567 77.3234L696.275 75.7966ZM683.466 87.3441L691.026 120.224L692.976 119.776L685.416 86.8959L683.466 87.3441ZM692.001 119H670.521V121H692.001V119ZM671.5 119.793L665.14 89.6734L663.183 90.0866L669.543 120.207L671.5 119.793ZM664.161 88.88H643.041V90.88H664.161V88.88ZM642.056 89.7073L636.776 119.827L638.746 120.173L644.026 90.0527L642.056 89.7073ZM637.761 119H615.081V121H637.761V119ZM646.041 73.84H671.241V71.84H646.041V73.84ZM671.881 73.6082L676.921 69.4082L675.641 67.8718L670.601 72.0718L671.881 73.6082ZM677.266 68.8117L680.026 52.9717L678.056 52.6283L675.296 68.4683L677.266 68.8117ZM679.811 52.162L676.331 47.962L674.791 49.238L678.271 53.438L679.811 52.162ZM675.561 47.6H650.361V49.6H675.561V47.6ZM649.377 48.4245L645.057 72.6645L647.026 73.0154L651.346 48.7755L649.377 48.4245ZM700.544 120L699.559 119.826L699.352 121H700.544V120ZM716.144 31.56V30.56H715.305L715.159 31.3863L716.144 31.56ZM739.424 31.56L740.357 31.2005L740.11 30.56H739.424V31.56ZM760.784 87L759.85 87.3595L761.141 90.7089L761.768 87.1748L760.784 87ZM770.624 31.56V30.56H769.785L769.639 31.3852L770.624 31.56ZM791.744 31.56L792.728 31.7337L792.935 30.56H791.744V31.56ZM776.144 120V121H776.983L777.128 120.174L776.144 120ZM755.024 120L754.09 120.359L754.337 121H755.024V120ZM735.104 68.16L736.037 67.8013L735.791 67.16H735.104V68.16ZM730.784 68.16V67.16H729.944L729.799 67.9867L730.784 68.16ZM721.664 120V121H722.503L722.648 120.173L721.664 120ZM701.528 120.174L717.128 31.7337L715.159 31.3863L699.559 119.826L701.528 120.174ZM716.144 32.56H739.424V30.56H716.144V32.56ZM738.49 31.9195L759.85 87.3595L761.717 86.6405L740.357 31.2005L738.49 31.9195ZM761.768 87.1748L771.608 31.7348L769.639 31.3852L759.799 86.8252L761.768 87.1748ZM770.624 32.56H791.744V30.56H770.624V32.56ZM790.759 31.3863L775.159 119.826L777.128 120.174L792.728 31.7337L790.759 31.3863ZM776.144 119H755.024V121H776.144V119ZM755.957 119.641L736.037 67.8013L734.17 68.5187L754.09 120.359L755.957 119.641ZM735.104 67.16H730.784V69.16H735.104V67.16ZM729.799 67.9867L720.679 119.827L722.648 120.173L731.768 68.3333L729.799 67.9867ZM721.664 119H700.544V121H721.664V119ZM805.75 120L804.847 119.571L804.168 121H805.75V120ZM847.75 31.56V30.56H847.118L846.847 31.131L847.75 31.56ZM884.35 31.56L885.343 31.4468L885.242 30.56H884.35V31.56ZM894.43 120V121H895.55L895.423 119.887L894.43 120ZM871.63 120L870.633 120.075L870.702 121H871.63V120ZM870.31 102.36L871.307 102.285L871.238 101.36H870.31V102.36ZM838.75 102.36V101.36H838.086L837.828 101.971L838.75 102.36ZM831.31 120V121H831.973L832.231 120.389L831.31 120ZM845.83 85.08L844.912 84.6828L844.307 86.08H845.83V85.08ZM868.87 85.08V86.08H869.952L869.867 85.0016L868.87 85.08ZM865.99 48.48L866.987 48.4016L866.914 47.48H865.99V48.48ZM861.67 48.48V47.48H861.013L860.752 48.0828L861.67 48.48ZM806.653 120.429L848.653 31.989L846.847 31.131L804.847 119.571L806.653 120.429ZM847.75 32.56H884.35V30.56H847.75V32.56ZM883.356 31.6732L893.436 120.113L895.423 119.887L885.343 31.4468L883.356 31.6732ZM894.43 119H871.63V121H894.43V119ZM872.627 119.925L871.307 102.285L869.313 102.435L870.633 120.075L872.627 119.925ZM870.31 101.36H838.75V103.36H870.31V101.36ZM837.828 101.971L830.388 119.611L832.231 120.389L839.671 102.749L837.828 101.971ZM831.31 119H805.75V121H831.31V119ZM845.83 86.08H868.87V84.08H845.83V86.08ZM869.867 85.0016L866.987 48.4016L864.993 48.5584L867.873 85.1584L869.867 85.0016ZM865.99 47.48H861.67V49.48H865.99V47.48ZM860.752 48.0828L844.912 84.6828L846.748 85.4772L862.588 48.8772L860.752 48.0828ZM899.509 120L898.524 119.826L898.317 121H899.509V120ZM915.109 31.56V30.56H914.27L914.124 31.3863L915.109 31.56ZM974.749 31.56L975.519 30.9219L975.219 30.56H974.749V31.56ZM985.789 44.88L986.774 45.0534L986.854 44.5979L986.559 44.2419L985.789 44.88ZM979.789 78.96L980.436 79.7229L980.711 79.4893L980.774 79.1334L979.789 78.96ZM964.069 92.28V93.28H964.436L964.716 93.0429L964.069 92.28ZM927.109 92.28V91.28H926.271L926.125 92.1052L927.109 92.28ZM922.189 120V121H923.027L923.174 120.175L922.189 120ZM930.109 75.24L929.124 75.067L928.918 76.24H930.109V75.24ZM954.229 75.24V76.24H954.598L954.878 76.0006L954.229 75.24ZM959.149 71.04L959.798 71.8006L960.071 71.5678L960.134 71.2149L959.149 71.04ZM962.389 52.8L963.374 52.9749L963.455 52.5187L963.159 52.162L962.389 52.8ZM958.909 48.6L959.679 47.962L959.379 47.6H958.909V48.6ZM934.789 48.6V47.6H933.95L933.804 48.427L934.789 48.6ZM900.494 120.174L916.094 31.7337L914.124 31.3863L898.524 119.826L900.494 120.174ZM915.109 32.56H974.749V30.56H915.109V32.56ZM973.979 32.1981L985.019 45.5181L986.559 44.2419L975.519 30.9219L973.979 32.1981ZM984.804 44.7066L978.804 78.7866L980.774 79.1334L986.774 45.0534L984.804 44.7066ZM979.143 78.1971L963.423 91.5171L964.716 93.0429L980.436 79.7229L979.143 78.1971ZM964.069 91.28H927.109V93.28H964.069V91.28ZM926.125 92.1052L921.205 119.825L923.174 120.175L928.094 92.4548L926.125 92.1052ZM922.189 119H899.509V121H922.189V119ZM930.109 76.24H954.229V74.24H930.109V76.24ZM954.878 76.0006L959.798 71.8006L958.5 70.2794L953.58 74.4794L954.878 76.0006ZM960.134 71.2149L963.374 52.9749L961.405 52.6251L958.165 70.8651L960.134 71.2149ZM963.159 52.162L959.679 47.962L958.139 49.238L961.619 53.438L963.159 52.162ZM958.909 47.6H934.789V49.6H958.909V47.6ZM933.804 48.427L929.124 75.067L931.094 75.413L935.774 48.773L933.804 48.427ZM978.644 120L977.659 119.826L977.452 121H978.644V120ZM994.244 31.56V30.56H993.405L993.259 31.3863L994.244 31.56ZM1053.88 31.56L1054.65 30.9219L1054.35 30.56H1053.88V31.56ZM1064.92 44.88L1065.91 45.0534L1065.99 44.5979L1065.69 44.2419L1064.92 44.88ZM1058.92 78.96L1059.57 79.7229L1059.85 79.4893L1059.91 79.1334L1058.92 78.96ZM1043.2 92.28V93.28H1043.57L1043.85 93.0429L1043.2 92.28ZM1006.24 92.28V91.28H1005.41L1005.26 92.1052L1006.24 92.28ZM1001.32 120V121H1002.16L1002.31 120.175L1001.32 120ZM1009.24 75.24L1008.26 75.067L1008.05 76.24H1009.24V75.24ZM1033.36 75.24V76.24H1033.73L1034.01 76.0006L1033.36 75.24ZM1038.28 71.04L1038.93 71.8006L1039.21 71.5678L1039.27 71.2149L1038.28 71.04ZM1041.52 52.8L1042.51 52.9749L1042.59 52.5187L1042.29 52.162L1041.52 52.8ZM1038.04 48.6L1038.81 47.962L1038.51 47.6H1038.04V48.6ZM1013.92 48.6V47.6H1013.08L1012.94 48.427L1013.92 48.6ZM979.628 120.174L995.228 31.7337L993.259 31.3863L977.659 119.826L979.628 120.174ZM994.244 32.56H1053.88V30.56H994.244V32.56ZM1053.11 32.1981L1064.15 45.5181L1065.69 44.2419L1054.65 30.9219L1053.11 32.1981ZM1063.94 44.7066L1057.94 78.7866L1059.91 79.1334L1065.91 45.0534L1063.94 44.7066ZM1058.28 78.1971L1042.56 91.5171L1043.85 93.0429L1059.57 79.7229L1058.28 78.1971ZM1043.2 91.28H1006.24V93.28H1043.2V91.28ZM1005.26 92.1052L1000.34 119.825L1002.31 120.175L1007.23 92.4548L1005.26 92.1052ZM1001.32 119H978.644V121H1001.32V119ZM1009.24 76.24H1033.36V74.24H1009.24V76.24ZM1034.01 76.0006L1038.93 71.8006L1037.63 70.2794L1032.71 74.4794L1034.01 76.0006ZM1039.27 71.2149L1042.51 52.9749L1040.54 52.6251L1037.3 70.8651L1039.27 71.2149ZM1042.29 52.162L1038.81 47.962L1037.27 49.238L1040.75 53.438L1042.29 52.162ZM1038.04 47.6H1013.92V49.6H1038.04V47.6ZM1012.94 48.427L1008.26 75.067L1010.23 75.413L1014.91 48.773L1012.94 48.427Z"
                fill="#11D9EB"
              />
            </g>
            <defs>
              <filter
                id="filter0_f_218_1439"
                x="9.54202"
                y="32.5601"
                width="1064.38"
                height="96.4399"
                filterUnits="userSpaceOnUse"
                color-interpolation-filters="sRGB"
              >
                <feFlood flood-opacity="0" result="BackgroundImageFix" />
                <feBlend
                  mode="normal"
                  in="SourceGraphic"
                  in2="BackgroundImageFix"
                  result="shape"
                />
                <feGaussianBlur
                  stdDeviation="2"
                  result="effect1_foregroundBlur_218_1439"
                />
              </filter>
              <filter
                id="filter1_b_218_1439"
                x="-28.458"
                y="-5.43994"
                width="1136.38"
                height="168.44"
                filterUnits="userSpaceOnUse"
                color-interpolation-filters="sRGB"
              >
                <feFlood flood-opacity="0" result="BackgroundImageFix" />
                <feGaussianBlur in="BackgroundImage" stdDeviation="20" />
                <feComposite
                  in2="SourceAlpha"
                  operator="in"
                  result="effect1_backgroundBlur_218_1439"
                />
                <feBlend
                  mode="normal"
                  in="SourceGraphic"
                  in2="effect1_backgroundBlur_218_1439"
                  result="shape"
                />
              </filter>
              <filter
                id="filter2_b_218_1439"
                x="-31.458"
                y="-8.43994"
                width="1136.38"
                height="168.44"
                filterUnits="userSpaceOnUse"
                color-interpolation-filters="sRGB"
              >
                <feFlood flood-opacity="0" result="BackgroundImageFix" />
                <feGaussianBlur in="BackgroundImage" stdDeviation="20" />
                <feComposite
                  in2="SourceAlpha"
                  operator="in"
                  result="effect1_backgroundBlur_218_1439"
                />
                <feBlend
                  mode="normal"
                  in="SourceGraphic"
                  in2="effect1_backgroundBlur_218_1439"
                  result="shape"
                />
              </filter>
              <linearGradient
                id="paint0_linear_218_1439"
                x1="528"
                y1="123"
                x2="523.5"
                y2="33.5"
                gradientUnits="userSpaceOnUse"
              >
                <stop stop-color="#82F7CE" />
                <stop offset="0.49248" stop-color="#4630C7" />
                <stop offset="1" stop-color="#D750EC" />
              </linearGradient>
              <linearGradient
                id="paint1_linear_218_1439"
                x1="525"
                y1="120"
                x2="520.5"
                y2="30.5"
                gradientUnits="userSpaceOnUse"
              >
                <stop stop-color="#82F7CE" />
                <stop offset="0.49248" stop-color="#4630C7" />
                <stop offset="1" stop-color="#D750EC" />
              </linearGradient>
            </defs>
          </svg>