<svg width="145" height="46" viewBox="0 0 145 46" fill="none" xmlns="http://www.w3.org/2000/svg">
<path d="M9.3034 45.043C8.92904 45.043 8.56373 45.0384 8.19231 45.0304C7.42288 45.0208 6.65525 44.9568 5.89572 44.8388C5.18749 44.7221 4.50141 44.5052 3.8601 44.195C3.22468 43.8875 2.64512 43.4842 2.14363 43.0006C1.63488 42.5227 1.21132 41.9685 0.889741 41.3598C0.564618 40.7472 0.339613 40.0905 0.222564 39.4127C0.0961624 38.6844 0.0277737 37.948 0.017988 37.2097C0.0101981 36.962 0 36.1369 0 36.1369V8.99547C0 8.99547 0.0108616 8.18311 0.0180495 7.94445C0.0274192 7.2074 0.0954103 6.47209 0.221434 5.7449C0.338698 5.06523 0.563878 4.40669 0.889176 3.79206C1.20957 3.18382 1.63078 2.62915 2.13647 2.14957C2.64158 1.66543 3.223 1.26006 3.8595 0.948244C4.49934 0.639102 5.18412 0.423666 5.89092 0.309155C6.65294 0.189978 7.42324 0.125545 8.19533 0.116397L9.304 0.102051H135.574L136.696 0.116972C137.461 0.125666 138.225 0.189524 138.98 0.308004C139.694 0.423951 140.386 0.64089 141.033 0.951687C142.308 1.58009 143.345 2.57429 144 3.79493C144.32 4.40531 144.542 5.05848 144.658 5.73229C144.785 6.46544 144.856 7.20652 144.871 7.94962C144.875 8.28236 144.875 8.63977 144.875 8.99547C144.884 9.43606 144.884 9.85543 144.884 10.2782V34.8679C144.884 35.2947 144.884 35.7112 144.875 36.1312C144.875 36.5133 144.875 36.8633 144.87 37.2235C144.856 37.9533 144.785 38.6812 144.66 39.4012C144.545 40.0839 144.321 40.7457 143.996 41.3633C143.673 41.9654 143.251 42.5148 142.749 42.9914C142.247 43.4776 141.666 43.8833 141.029 44.1928C140.384 44.5053 139.693 44.7231 138.98 44.8388C138.22 44.9574 137.453 45.0215 136.683 45.0304C136.323 45.0384 135.946 45.043 135.58 45.043L134.249 45.0453L9.3034 45.043Z" fill="white"/>
<path d="M29.6412 22.4426C29.655 21.416 29.9382 20.4095 30.4647 19.5166C30.9911 18.6238 31.7437 17.8736 32.6522 17.3359C32.075 16.5425 31.3136 15.8895 30.4284 15.4288C29.5431 14.9681 28.5585 14.7125 27.5527 14.6822C25.4071 14.4654 23.3271 15.9181 22.2337 15.9181C21.1192 15.9181 19.4358 14.7037 17.6231 14.7396C16.4506 14.7761 15.3079 15.1043 14.3063 15.6923C13.3047 16.2802 12.4785 17.1079 11.908 18.0947C9.437 22.2129 11.2802 28.2653 13.6472 31.5942C14.8316 33.2243 16.2157 35.0451 18.0268 34.9805C19.799 34.9097 20.4609 33.8927 22.6002 33.8927C24.7196 33.8927 25.3406 34.9805 27.1884 34.9394C29.0901 34.9097 30.2883 33.3021 31.4311 31.6567C32.282 30.4952 32.9368 29.2115 33.3712 27.8532C32.2663 27.4034 31.3235 26.6504 30.6602 25.6883C29.9969 24.7261 29.6425 23.5973 29.6412 22.4426Z" fill="black"/>
<path d="M26.1508 12.4949C27.1877 11.2964 27.6986 9.75596 27.5749 8.20068C25.9907 8.36088 24.5274 9.08985 23.4765 10.2423C22.9627 10.8054 22.5692 11.4604 22.3184 12.1699C22.0677 12.8795 21.9646 13.6297 22.0152 14.3776C22.8075 14.3854 23.5914 14.2201 24.3078 13.8939C25.0241 13.5678 25.6543 13.0895 26.1508 12.4949Z" fill="black"/>
<path d="M50.9039 31.0189H45.0881L43.6914 34.9891H41.228L46.7367 20.3003H49.2961L54.8048 34.9891H52.2994L50.9039 31.0189ZM45.6904 29.1868H50.3005L48.0278 22.7434H47.9642L45.6904 29.1868Z" fill="black"/>
<path d="M66.7021 29.6338C66.7021 32.9618 64.8518 35.1 62.0597 35.1C61.3524 35.1356 60.649 34.9787 60.03 34.6474C59.411 34.316 58.9014 33.8235 58.5596 33.2263H58.5068V38.5307H56.2234V24.2786H58.4336V26.0598H58.4756C58.8331 25.4655 59.3512 24.9755 59.975 24.6421C60.5987 24.3088 61.3046 24.1444 62.0177 24.1665C64.841 24.1665 66.7021 26.3151 66.7021 29.6338ZM64.3551 29.6338C64.3551 27.4656 63.1912 26.0402 61.4153 26.0402C59.6707 26.0402 58.4972 27.4957 58.4972 29.6338C58.4972 31.7916 59.6707 33.2367 61.4153 33.2367C63.1912 33.2367 64.355 31.8217 64.355 29.6338H64.3551Z" fill="black"/>
<path d="M78.9458 29.6338C78.9458 32.9618 77.095 35.1 74.3028 35.1C73.5956 35.1356 72.8921 34.9787 72.2731 34.6474C71.6541 34.316 71.1446 33.8235 70.8028 33.2263H70.7499V38.5307H68.4666V24.2786H70.6767V26.0598H70.7187C71.0762 25.4655 71.5944 24.9755 72.2181 24.6421C72.8418 24.3088 73.5478 24.1444 74.2608 24.1665C77.0842 24.1665 78.9458 26.3151 78.9458 29.6338ZM76.5982 29.6338C76.5982 27.4656 75.4343 26.0402 73.6585 26.0402C71.9139 26.0402 70.7404 27.4957 70.7404 29.6338C70.7404 31.7916 71.9139 33.2367 73.6585 33.2367C75.4343 33.2367 76.5982 31.8217 76.5982 29.6338Z" fill="black"/>
<path d="M87.0362 30.8972C87.2054 32.3539 88.6752 33.3103 90.6838 33.3103C92.6085 33.3103 93.9931 32.3538 93.9931 31.0404C93.9931 29.9003 93.158 29.2176 91.1806 28.7498L89.2032 28.2912C86.4014 27.6397 85.1008 26.3782 85.1008 24.3313C85.1008 21.797 87.3949 20.0562 90.6514 20.0562C93.8768 20.0562 96.087 21.797 96.1614 24.3313H93.8563C93.7184 22.8655 92.4597 21.9806 90.6202 21.9806C88.7808 21.9806 87.5221 22.8759 87.5221 24.1789C87.5221 25.2173 88.3261 25.8284 90.2927 26.2962L91.9737 26.6936C95.1042 27.4063 96.4037 28.6169 96.4037 30.7654C96.4037 33.5135 94.1311 35.2347 90.5146 35.2347C87.1309 35.2347 84.8463 33.5539 84.6987 30.8971L87.0362 30.8972Z" fill="black"/>
<path d="M101.334 21.7451V24.2795H103.449V26.0203H101.334V31.9242C101.334 32.8414 101.758 33.2688 102.687 33.2688C102.939 33.2646 103.189 33.2476 103.439 33.218V34.9484C103.021 35.0236 102.596 35.0576 102.17 35.05C99.9181 35.05 99.0398 34.2356 99.0398 32.1587V26.0203H97.4224V24.2795H99.0398V21.7451H101.334Z" fill="black"/>
<path d="M104.674 29.6344C104.674 26.2648 106.735 24.1475 109.949 24.1475C113.175 24.1475 115.227 26.2648 115.227 29.6344C115.227 33.0132 113.186 35.1213 109.949 35.1213C106.715 35.1213 104.674 33.0132 104.674 29.6344ZM112.9 29.6344C112.9 27.3229 111.8 25.9587 109.949 25.9587C108.099 25.9587 106.999 27.3333 106.999 29.6344C106.999 31.9551 108.099 33.3089 109.949 33.3089C111.8 33.3089 112.9 31.9551 112.9 29.6344H112.9Z" fill="black"/>
<path d="M117.11 24.2785H119.288V26.1013H119.341C119.488 25.532 119.835 25.0289 120.322 24.6765C120.809 24.3242 121.408 24.144 122.017 24.1664C122.28 24.1655 122.542 24.193 122.799 24.2484V26.3046C122.467 26.2069 122.12 26.162 121.773 26.1717C121.441 26.1588 121.11 26.2151 120.803 26.3368C120.497 26.4585 120.221 26.6427 119.994 26.8768C119.768 27.1109 119.598 27.3893 119.494 27.6929C119.39 27.9965 119.356 28.3181 119.394 28.6357V34.9878H117.11L117.11 24.2785Z" fill="black"/>
<path d="M133.326 31.843C133.019 33.7871 131.052 35.1213 128.536 35.1213C125.3 35.1213 123.291 33.034 123.291 29.6852C123.291 26.3261 125.311 24.1475 128.44 24.1475C131.518 24.1475 133.453 26.1828 133.453 29.4299V30.1831H125.596V30.3159C125.56 30.71 125.611 31.1071 125.747 31.4807C125.882 31.8543 126.098 32.1959 126.381 32.4828C126.664 32.7697 127.008 32.9953 127.388 33.1447C127.769 33.2941 128.178 33.3639 128.589 33.3493C129.128 33.398 129.67 33.2777 130.133 33.0063C130.596 32.7349 130.955 32.3269 131.158 31.843L133.326 31.843ZM125.607 28.6467H131.169C131.189 28.2924 131.133 27.9377 131.005 27.6051C130.876 27.2725 130.677 26.969 130.421 26.7138C130.165 26.4586 129.857 26.2571 129.516 26.122C129.175 25.9869 128.809 25.9211 128.44 25.9287C128.068 25.9266 127.7 25.9953 127.355 26.1311C127.011 26.2668 126.699 26.4668 126.435 26.7195C126.172 26.9722 125.963 27.2726 125.821 27.6034C125.679 27.9342 125.606 28.2888 125.607 28.6467V28.6467Z" fill="black"/>
<path d="M45.403 9.2458C45.8817 9.21273 46.3621 9.28236 46.8095 9.44968C47.2569 9.61699 47.6601 9.87782 47.9901 10.2134C48.3201 10.5489 48.5687 10.9508 48.7178 11.39C48.867 11.8292 48.9131 12.2948 48.8527 12.7532C48.8527 15.0084 47.5868 16.3046 45.403 16.3046H42.7549V9.2458H45.403ZM43.8936 15.3064H45.2758C45.6179 15.3261 45.9602 15.2721 46.2779 15.1483C46.5956 15.0245 46.8806 14.8341 47.1122 14.5909C47.3438 14.3478 47.5161 14.0579 47.6167 13.7425C47.7173 13.4271 47.7436 13.094 47.6936 12.7676C47.7399 12.4425 47.711 12.1115 47.6089 11.7984C47.5068 11.4853 47.334 11.1978 47.1029 10.9566C46.8718 10.7153 46.5882 10.5263 46.2723 10.403C45.9565 10.2797 45.6162 10.2251 45.2758 10.2433H43.8936V15.3064Z" fill="black"/>
<path d="M50.1391 13.6385C50.1043 13.2884 50.1459 12.9352 50.2612 12.6015C50.3765 12.2678 50.5629 11.961 50.8086 11.7008C51.0543 11.4405 51.3537 11.2326 51.6877 11.0903C52.0217 10.948 52.383 10.8745 52.7482 10.8745C53.1135 10.8745 53.4747 10.948 53.8087 11.0903C54.1427 11.2326 54.4422 11.4405 54.6878 11.7008C54.9335 11.961 55.12 12.2678 55.2353 12.6015C55.3506 12.9352 55.3922 13.2884 55.3574 13.6385C55.3928 13.9889 55.3517 14.3426 55.2367 14.6768C55.1217 15.0111 54.9354 15.3184 54.6896 15.5792C54.4439 15.8399 54.1442 16.0483 53.8099 16.1909C53.4755 16.3335 53.1139 16.4072 52.7482 16.4072C52.3825 16.4072 52.0209 16.3335 51.6865 16.1909C51.3522 16.0483 51.0525 15.8399 50.8068 15.5792C50.561 15.3184 50.3747 15.0111 50.2597 14.6768C50.1447 14.3426 50.1036 13.9889 50.1391 13.6385ZM54.2343 13.6385C54.2343 12.4838 53.6955 11.8085 52.75 11.8085C51.8009 11.8085 51.267 12.4838 51.267 13.6385C51.267 14.8024 51.8009 15.4725 52.75 15.4725C53.6955 15.4725 54.2343 14.7978 54.2343 13.6385H54.2343Z" fill="black"/>
<path d="M62.2935 16.3041H61.1608L60.0173 12.3807H59.9309L58.7922 16.3041H57.6703L56.1453 10.9771H57.2528L58.2439 15.0419H58.3255L59.463 10.9771H60.5105L61.648 15.0419H61.7344L62.7207 10.9771H63.8126L62.2935 16.3041Z" fill="black"/>
<path d="M65.0957 10.9767H66.1468V11.823H66.2284C66.3668 11.519 66.6003 11.2642 66.8962 11.0941C67.1922 10.924 67.5359 10.847 67.8795 10.8739C68.1487 10.8544 68.419 10.8935 68.6704 10.9882C68.9217 11.083 69.1478 11.231 69.3317 11.4213C69.5156 11.6116 69.6527 11.8392 69.7328 12.0875C69.8129 12.3357 69.834 12.5981 69.7945 12.8552V16.3037H68.7026V13.1192C68.7026 12.2631 68.3162 11.8374 67.5087 11.8374C67.3259 11.8292 67.1434 11.8592 66.9738 11.9252C66.8042 11.9913 66.6514 12.0918 66.5259 12.2201C66.4004 12.3483 66.3052 12.5011 66.2468 12.6681C66.1885 12.835 66.1682 13.0122 66.1876 13.1874V16.3037H65.0957L65.0957 10.9767Z" fill="black"/>
<path d="M71.5349 8.89844H72.6268V16.305H71.5349V8.89844Z" fill="black"/>
<path d="M74.1439 13.6386C74.1091 13.2885 74.1508 12.9352 74.2661 12.6015C74.3814 12.2678 74.5679 11.961 74.8136 11.7008C75.0593 11.4405 75.3588 11.2326 75.6928 11.0903C76.0269 10.948 76.3881 10.8745 76.7534 10.8745C77.1186 10.8745 77.4799 10.948 77.8139 11.0903C78.148 11.2326 78.4474 11.4405 78.6931 11.7008C78.9388 11.961 79.1253 12.2678 79.2406 12.6015C79.356 12.9352 79.3976 13.2885 79.3628 13.6386C79.3982 13.989 79.3571 14.3427 79.2421 14.677C79.127 15.0112 78.9406 15.3185 78.6949 15.5793C78.4491 15.84 78.1494 16.0484 77.8151 16.191C77.4807 16.3336 77.1191 16.4072 76.7534 16.4072C76.3877 16.4072 76.026 16.3336 75.6916 16.191C75.3573 16.0484 75.0576 15.84 74.8118 15.5793C74.5661 15.3185 74.3797 15.0112 74.2647 14.677C74.1496 14.3427 74.1085 13.989 74.1439 13.6386ZM78.2391 13.6386C78.2391 12.4839 77.7004 11.8086 76.7549 11.8086C75.8058 11.8086 75.2718 12.4839 75.2718 13.6386C75.2718 14.8025 75.8058 15.4726 76.7549 15.4726C77.7004 15.4726 78.2391 14.7979 78.2391 13.6386H78.2391Z" fill="black"/>
<path d="M80.5125 14.7979C80.5125 13.839 81.254 13.2862 82.5703 13.2076L84.0689 13.1244V12.6646C84.0689 12.102 83.6826 11.7843 82.9362 11.7843C82.3267 11.7843 81.9043 11.9998 81.7831 12.3764H80.726C80.8376 11.4614 81.7315 10.8745 82.9866 10.8745C84.3737 10.8745 85.156 11.5394 85.156 12.6646V16.3043H84.1049V15.5557H84.0185C83.8432 15.8243 83.5969 16.0432 83.305 16.1901C83.013 16.3371 82.6858 16.4068 82.3567 16.3921C82.1244 16.4154 81.8897 16.3915 81.6676 16.3221C81.4455 16.2526 81.241 16.1392 81.0672 15.9889C80.8934 15.8387 80.7543 15.6551 80.6588 15.45C80.5632 15.2448 80.5134 15.0227 80.5125 14.7979ZM84.0689 14.3427V13.8973L82.7178 13.9805C81.9559 14.0296 81.6103 14.2791 81.6103 14.7487C81.6103 15.2282 82.0423 15.5072 82.6363 15.5072C82.8103 15.5241 82.9861 15.5072 83.1532 15.4574C83.3203 15.4076 83.4753 15.326 83.609 15.2173C83.7427 15.1087 83.8523 14.9753 83.9313 14.825C84.0103 14.6747 84.0571 14.5107 84.0689 14.3427Z" fill="black"/>
<path d="M86.5908 13.6392C86.5908 11.9559 87.4895 10.8896 88.8874 10.8896C89.2332 10.8742 89.5763 10.954 89.8768 11.1195C90.1772 11.285 90.4225 11.5294 90.5841 11.8242H90.6657V8.89844H91.7575V16.305H90.7113V15.4633H90.6249C90.4509 15.7561 90.197 15.9975 89.8908 16.1613C89.5845 16.3251 89.2375 16.4052 88.8874 16.3928C87.4799 16.3928 86.5908 15.3265 86.5908 13.6392ZM87.7188 13.6392C87.7188 14.769 88.2719 15.4489 89.197 15.4489C90.1173 15.4489 90.6861 14.7592 90.6861 13.6438C90.6861 12.5336 90.1113 11.834 89.197 11.834C88.2779 11.834 87.7187 12.5185 87.7187 13.6392H87.7188Z" fill="black"/>
<path d="M96.2753 13.6385C96.2405 13.2884 96.2821 12.9352 96.3974 12.6015C96.5127 12.2678 96.6992 11.961 96.9448 11.7008C97.1905 11.4405 97.4899 11.2326 97.8239 11.0903C98.158 10.948 98.5192 10.8745 98.8844 10.8745C99.2497 10.8745 99.6109 10.948 99.9449 11.0903C100.279 11.2326 100.578 11.4405 100.824 11.7008C101.07 11.961 101.256 12.2678 101.371 12.6015C101.487 12.9352 101.528 13.2884 101.494 13.6385C101.529 13.9889 101.488 14.3426 101.373 14.6768C101.258 15.0111 101.072 15.3184 100.826 15.5792C100.58 15.8399 100.28 16.0483 99.9461 16.1909C99.6118 16.3335 99.2501 16.4072 98.8844 16.4072C98.5188 16.4072 98.1571 16.3335 97.8228 16.1909C97.4884 16.0483 97.1887 15.8399 96.943 15.5792C96.6973 15.3184 96.5109 15.0111 96.3959 14.6768C96.2809 14.3426 96.2398 13.9889 96.2753 13.6385ZM100.37 13.6385C100.37 12.4838 99.8317 11.8085 98.8862 11.8085C97.9371 11.8085 97.4032 12.4838 97.4032 13.6385C97.4032 14.8024 97.9372 15.4725 98.8862 15.4725C99.8318 15.4725 100.37 14.7978 100.37 13.6385Z" fill="black"/>
<path d="M102.959 10.9767H104.01V11.823H104.092C104.23 11.519 104.464 11.2642 104.76 11.0941C105.055 10.924 105.399 10.847 105.743 10.8739C106.012 10.8544 106.282 10.8935 106.534 10.9882C106.785 11.083 107.011 11.231 107.195 11.4213C107.379 11.6116 107.516 11.8392 107.596 12.0875C107.676 12.3357 107.697 12.5981 107.658 12.8552V16.3037H106.566V13.1192C106.566 12.2631 106.18 11.8374 105.372 11.8374C105.189 11.8292 105.007 11.8592 104.837 11.9252C104.667 11.9913 104.515 12.0918 104.389 12.2201C104.264 12.3483 104.169 12.5011 104.11 12.6681C104.052 12.835 104.032 13.0122 104.051 13.1874V16.3037H102.959V10.9767Z" fill="black"/>
<path d="M113.827 9.65088V11.0014H115.026V11.8869H113.827V14.6261C113.827 15.1841 114.066 15.4285 114.61 15.4285C114.749 15.428 114.888 15.4199 115.026 15.4042V16.2799C114.83 16.3137 114.631 16.3316 114.432 16.3336C113.218 16.3336 112.734 15.9223 112.734 14.8953V11.8869H111.856V11.0014H112.734V9.65088H113.827Z" fill="black"/>
<path d="M116.518 8.89844H117.6V11.834H117.687C117.832 11.5272 118.072 11.271 118.373 11.1002C118.675 10.9295 119.025 10.8525 119.373 10.8798C119.641 10.8657 119.909 10.9088 120.158 11.0058C120.406 11.1029 120.629 11.2516 120.811 11.4412C120.993 11.6309 121.13 11.8569 121.21 12.1032C121.291 12.3494 121.315 12.6098 121.279 12.8657V16.305H120.186V13.125C120.186 12.2742 119.774 11.8432 119.003 11.8432C118.815 11.8284 118.626 11.8533 118.45 11.916C118.273 11.9788 118.113 12.078 117.98 12.2066C117.847 12.3352 117.746 12.4902 117.682 12.6608C117.618 12.8313 117.593 13.0132 117.61 13.1938V16.305H116.518L116.518 8.89844Z" fill="black"/>
<path d="M127.645 14.8661C127.497 15.353 127.176 15.7741 126.737 16.0558C126.299 16.3376 125.772 16.462 125.248 16.4072C124.884 16.4165 124.521 16.3493 124.186 16.2103C123.852 16.0712 123.552 15.8637 123.309 15.6021C123.066 15.3405 122.885 15.0311 122.778 14.6953C122.672 14.3595 122.642 14.0055 122.692 13.6577C122.644 13.3088 122.674 12.954 122.78 12.6172C122.886 12.2805 123.066 11.9696 123.308 11.7057C123.55 11.4418 123.848 11.231 124.182 11.0876C124.516 10.9443 124.878 10.8716 125.243 10.8746C126.783 10.8746 127.711 11.8873 127.711 13.56V13.9269H123.805V13.9858C123.787 14.1813 123.813 14.378 123.88 14.5635C123.946 14.7489 124.052 14.9189 124.191 15.0626C124.329 15.2063 124.498 15.3205 124.685 15.3978C124.872 15.4752 125.074 15.5141 125.278 15.5119C125.539 15.5421 125.804 15.4968 126.038 15.3818C126.273 15.2668 126.466 15.0873 126.594 14.8661L127.645 14.8661ZM123.805 13.1494H126.599C126.613 12.9706 126.588 12.791 126.525 12.6222C126.462 12.4533 126.364 12.299 126.236 12.169C126.107 12.039 125.952 11.9363 125.78 11.8675C125.608 11.7987 125.423 11.7653 125.237 11.7694C125.048 11.7671 124.861 11.8012 124.686 11.8698C124.511 11.9383 124.352 12.0399 124.219 12.1685C124.085 12.2971 123.98 12.4502 123.909 12.6186C123.838 12.7871 123.802 12.9675 123.805 13.1494H123.805Z" fill="black"/>
</svg>
