<svg width="157" height="46" viewBox="0 0 157 46" fill="none" xmlns="http://www.w3.org/2000/svg">
<path d="M151.22 45.0453H6.70985C3.53066 45.0453 0.929443 42.5173 0.929443 39.4274V5.71998C0.929443 2.63011 3.53061 0.102051 6.70985 0.102051H151.22C154.399 0.102051 157 2.63011 157 5.71998V39.4274C157 42.5173 154.399 45.0453 151.22 45.0453Z" fill="white"/>
<path d="M55.8002 11.5489C55.8002 12.496 55.5135 13.2502 54.9394 13.8128C54.2872 14.4818 53.4372 14.8165 52.3923 14.8165C51.3917 14.8165 50.5409 14.4774 49.8412 13.7982C49.1403 13.1195 48.7905 12.2779 48.7905 11.2737C48.7905 10.2691 49.1403 9.428 49.8412 8.74874C50.5409 8.0701 51.3917 7.73047 52.3923 7.73047C52.8888 7.73047 53.3642 7.82547 53.8155 8.01492C54.2669 8.20483 54.6289 8.45692 54.8997 8.77262L54.2903 9.36916C53.8313 8.83267 53.1994 8.56463 52.3923 8.56463C51.6626 8.56463 51.0315 8.8155 50.4989 9.31755C49.9663 9.8201 49.7 10.4718 49.7 11.2737C49.7 12.0757 49.9663 12.7273 50.4989 13.2299C51.0315 13.732 51.6625 13.9828 52.3923 13.9828C53.1665 13.9828 53.8119 13.7306 54.3287 13.2255C54.6641 12.8965 54.8581 12.4391 54.91 11.8517H52.3923V11.037H55.7519C55.7843 11.2142 55.8001 11.3842 55.8001 11.5489" fill="black"/>
<path d="M55.7995 11.5486H55.6839C55.683 12.4741 55.4067 13.193 54.8569 13.7326L54.8557 13.7335L54.8552 13.7344C54.2237 14.3804 53.412 14.7019 52.3915 14.7032C51.4176 14.7019 50.6024 14.3769 49.9217 13.718C49.2425 13.0579 48.9066 12.252 48.9053 11.2735C48.9066 10.2945 49.2425 9.48908 49.9217 8.82938C50.6024 8.17009 51.4176 7.84464 52.3915 7.84327C52.8732 7.84327 53.3318 7.93522 53.7691 8.11842C54.2069 8.30305 54.5528 8.54498 54.8105 8.84533L54.8989 8.77238L54.8173 8.69246L54.2079 9.28941L54.2895 9.36892L54.3785 9.29658C53.8982 8.73351 53.224 8.44967 52.3916 8.45135C51.6347 8.45043 50.9689 8.71502 50.4182 9.23612C49.8622 9.7589 49.5828 10.4473 49.5837 11.2735C49.5828 12.0997 49.8622 12.7881 50.4182 13.3109C50.9689 13.832 51.6347 14.0965 52.3915 14.0956C53.1913 14.097 53.873 13.8315 54.4096 13.3052C54.768 12.9536 54.9712 12.4667 55.0244 11.8612L55.0352 11.7384H52.5071V11.1498H55.7511V11.0368L55.6373 11.0566C55.6689 11.2281 55.6839 11.3909 55.6839 11.5486H55.915C55.915 11.3768 55.8987 11.2002 55.8648 11.0166L55.8477 10.9237H52.2761V11.9645H54.9093V11.8515L54.7942 11.8418C54.7433 12.4106 54.5581 12.8389 54.2463 13.1454C53.7498 13.6293 53.1404 13.8682 52.3916 13.8695C51.6889 13.8686 51.0926 13.6319 50.5785 13.1484C50.0694 12.6666 49.8161 12.0515 49.8148 11.2735C49.8161 10.4954 50.0694 9.88032 50.5785 9.39854C51.0926 8.91504 51.6888 8.67834 52.3916 8.67743C53.1729 8.67925 53.7629 8.9318 54.2012 9.44183L54.2825 9.53632L54.9807 8.85234L55.0556 8.77908L54.9874 8.69993C54.7035 8.36884 54.3253 8.10603 53.8604 7.91094C53.3946 7.71524 52.903 7.61719 52.3916 7.61719C51.3643 7.61633 50.4779 7.96957 49.7588 8.66864C49.0371 9.36633 48.6733 10.2433 48.6743 11.2735C48.6733 12.3032 49.0371 13.1807 49.7593 13.8788C50.4779 14.5774 51.3643 14.9302 52.3916 14.9293C53.4614 14.9302 54.3488 14.5826 55.0222 13.8907L54.9386 13.8125L55.0203 13.8925C55.6189 13.3074 55.9158 12.517 55.915 11.5486H55.7995M61.1255 8.71543H57.9682V10.866H60.8155V11.681H57.9682V13.8315H61.1255V14.6648H57.0781V7.88218H61.1255V8.71543Z" fill="black"/>
<path d="M61.1255 8.71484V8.6018H57.8527V10.9784H60.6999V11.567L57.8527 11.5673V13.944H61.0099V14.5511H57.1937V7.99463H61.0099V8.71484H61.1255V8.6018V8.71484H61.241V7.76855H56.9626V14.7772H61.241V13.7179H58.0838V11.7934H60.931V10.7523H58.0838V8.82788H61.241V8.71484H61.1255ZM64.8822 14.6642H63.9908V8.71479H62.0544V7.88154H66.8186V8.71479H64.8822V14.6641" fill="black"/>
<path d="M64.8835 14.6642V14.5511H64.1076V8.6018H62.1713V7.99469H66.7043V8.6018H64.768V14.6642H64.8835V14.5511V14.6642H64.9991V8.82788H66.9354V7.76855H61.9402V8.82783H63.8765V14.7772H64.9991V14.6641H64.8835M70.267 14.6642V7.88154H71.1575V14.6641H70.267" fill="black"/>
<path d="M70.2662 14.6642H70.3817V7.99463H71.0411V14.5511H70.2662V14.6642H70.3817H70.2662V14.7772H71.2722V7.76855H70.1506V14.7772H70.2662V14.6642M75.1083 14.6642H74.2169V8.71479H72.2806V7.88154H77.0447V8.71479H75.1083V14.6641" fill="black"/>
<path d="M75.1088 14.6651V14.552H74.3329V8.60263H72.3966V7.99551H76.9296V8.60263H74.9932V14.665H75.1088V14.552V14.665H75.2243V8.82871H77.1607V7.76938H72.1655V8.82866H74.1018V14.778H75.2243V14.665H75.1088M81.6382 13.2207C82.1513 13.7289 82.7793 13.9828 83.5218 13.9828C84.2643 13.9828 84.8925 13.7289 85.4049 13.2207C85.9185 12.7124 86.1758 12.0628 86.1758 11.2737C86.1758 10.4847 85.9185 9.83504 85.4049 9.32679C84.8925 8.81855 84.2643 8.56463 83.5218 8.56463C82.7793 8.56463 82.1513 8.81855 81.6382 9.32679C81.1259 9.83504 80.8687 10.4847 80.8687 11.2737C80.8687 12.0628 81.1259 12.7124 81.6382 13.2207ZM86.0638 13.7885C85.3822 14.4742 84.5346 14.8165 83.5218 14.8165C82.508 14.8165 81.6607 14.4742 80.9806 13.7885C80.2985 13.1035 79.9592 12.2651 79.9592 11.2737C79.9592 10.2823 80.2985 9.44374 80.9806 8.75895C81.6608 8.07309 82.508 7.73047 83.5218 7.73047C84.5292 7.73047 85.3746 8.07492 86.0593 8.76337C86.7431 9.45177 87.0853 10.2885 87.0853 11.2737C87.0853 12.2651 86.744 13.1035 86.0638 13.7885Z" fill="black"/>
<path d="M81.6376 13.2205L81.5554 13.2999C82.0876 13.8285 82.7516 14.097 83.5212 14.0956C84.2902 14.097 84.9551 13.8285 85.4864 13.2999C86.0221 12.7708 86.2916 12.0864 86.2907 11.2735C86.2915 10.4606 86.0221 9.77612 85.4864 9.24705C84.9551 8.71848 84.2902 8.45003 83.5212 8.45135C82.7516 8.45003 82.0876 8.71848 81.5554 9.24705C81.021 9.77612 80.7511 10.4606 80.7525 11.2735C80.7511 12.0863 81.021 12.7708 81.5554 13.2999L81.6376 13.2205L81.7198 13.1409C81.2296 12.653 80.9845 12.0392 80.9836 11.2735C80.9845 10.5079 81.2296 9.89404 81.7198 9.40601C82.2144 8.91814 82.8052 8.6788 83.5212 8.67748C84.2365 8.6788 84.8287 8.91814 85.3221 9.40601C85.8132 9.89404 86.0583 10.5079 86.0592 11.2735C86.0583 12.0391 85.8132 12.653 85.3221 13.1409C84.8287 13.6289 84.2366 13.8682 83.5212 13.8695C82.8052 13.8682 82.2144 13.6289 81.7198 13.1409L81.6376 13.2205ZM86.0632 13.7882L85.9806 13.7097C85.3181 14.3738 84.5078 14.7019 83.5212 14.7032C82.534 14.7019 81.7238 14.3738 81.0625 13.7097L81.0594 13.7061L81.0625 13.7097C80.4013 13.0433 80.0751 12.2397 80.0741 11.2735C80.0751 10.3073 80.4013 9.50366 81.0625 8.83731C81.7238 8.17314 82.534 7.84464 83.5212 7.84332C84.5015 7.84464 85.3098 8.17451 85.9761 8.84213C86.6396 9.51158 86.9677 10.3139 86.9691 11.2735C86.9677 12.2397 86.6405 13.0433 85.9806 13.7097L86.0632 13.7882L86.1463 13.8668C86.8468 13.163 87.201 12.29 87.2002 11.2735C87.2011 10.2628 86.8454 9.39153 86.1417 8.68459C85.4376 7.97485 84.5557 7.61597 83.5212 7.61719C82.4812 7.61597 81.5966 7.97318 80.8969 8.68017V8.67966C80.1951 9.38396 79.8421 10.257 79.843 11.2735C79.8421 12.29 80.1951 13.163 80.8969 13.8672L80.9001 13.8704L80.8969 13.8668C81.5966 14.5738 82.4812 14.9302 83.5212 14.9293C84.5606 14.9302 85.4453 14.5738 86.1463 13.8668L86.0632 13.7882ZM88.3349 14.6648V7.88214H89.4191L92.7885 13.1585H92.8269L92.7885 11.8514V7.88214H93.68V14.6647H92.7501L89.225 9.13263H89.1866L89.225 10.4402V14.6647H88.3349" fill="black"/>
<path d="M88.3353 14.6625H88.4509V7.99458H89.3554L92.7248 13.2697H92.9459L92.9044 11.8482V7.99463H93.5648V14.5495H92.8147L89.2895 9.01874H89.0684L89.1098 10.4408V14.5495H88.3353V14.6625H88.4509H88.3353V14.7755H89.3409V10.4372L89.3026 9.12871L89.187 9.13176V9.24477H89.2254V9.13176L89.1274 9.19184L92.6864 14.7755H93.7959V7.76855H92.6734V11.8512L92.7117 13.1597L92.8273 13.1566V13.0436H92.7889V13.1566L92.8869 13.0967L89.4835 7.76855H88.2198V14.7755H88.3354V14.6625M124.572 33.8751H126.728V19.7468H124.572L124.572 33.8751ZM143.992 24.8362L141.521 30.9614H141.447L138.882 24.8361H136.559L140.406 33.3974L138.213 38.1595H140.462L146.39 24.8361L143.992 24.8362ZM131.765 32.2704C131.058 32.2704 130.073 31.9251 130.073 31.0705C130.073 29.98 131.301 29.562 132.359 29.562C133.308 29.562 133.752 29.7619 134.329 30.0349C134.162 31.3433 133.009 32.2704 131.765 32.2704ZM132.025 24.527C130.464 24.527 128.847 25.1998 128.178 26.6903L130.092 27.4716C130.501 26.6903 131.262 26.4355 132.062 26.4355C133.177 26.4355 134.311 27.0902 134.329 28.2535V28.3988C133.938 28.1806 133.103 27.8535 132.08 27.8535C130.018 27.8535 127.917 28.962 127.917 31.0342C127.917 32.9247 129.609 34.1426 131.504 34.1426C132.954 34.1426 133.752 33.5064 134.255 32.7613H134.329V33.8517H136.41V28.4349C136.41 25.927 134.497 24.527 132.025 24.527ZM118.7 26.556H115.633V21.7132H118.7C120.312 21.7132 121.227 23.0185 121.227 24.1345C121.227 25.2294 120.312 26.556 118.7 26.556ZM118.644 19.7468H113.478V33.8751H115.633V28.5223H118.644C121.034 28.5223 123.383 26.8301 123.383 24.1345C123.383 21.439 121.034 19.7468 118.644 19.7468ZM90.4725 32.273C88.983 32.273 87.7359 31.0532 87.7359 29.3779C87.7359 27.6849 88.983 26.4466 90.4725 26.4466C91.9431 26.4466 93.0972 27.6849 93.0972 29.3779C93.0972 31.0532 91.9431 32.273 90.4725 32.273H90.4725ZM92.9482 25.6272H92.8737C92.3899 25.063 91.4587 24.5532 90.2861 24.5532C87.8289 24.5532 85.5766 26.6651 85.5766 29.3779C85.5766 32.0726 87.8288 34.1665 90.2861 34.1665C91.4587 34.1665 92.3899 33.6565 92.8737 33.0742H92.9482V33.766C92.9482 35.6052 91.9431 36.5884 90.3236 36.5884C89.0019 36.5884 88.1828 35.6595 87.8473 34.8767L85.9675 35.6414C86.5073 36.9159 87.9408 38.4818 90.3236 38.4818C92.8552 38.4818 94.996 37.0249 94.996 33.4747V24.8445H92.9482V25.6272ZM96.4851 33.8751H98.6445V19.7463H96.4851V33.8751ZM101.828 29.2141C101.772 27.3568 103.298 26.4103 104.397 26.4103C105.253 26.4103 105.979 26.8288 106.221 27.4302L101.828 29.2141ZM108.529 27.612C108.12 26.5374 106.872 24.5532 104.322 24.5532C101.79 24.5532 99.6871 26.5013 99.6871 29.3598C99.6871 32.0545 101.772 34.1665 104.564 34.1665C106.817 34.1665 108.12 32.8191 108.66 32.0363L106.984 30.9437C106.426 31.745 105.663 32.273 104.564 32.273C103.466 32.273 102.684 31.7812 102.181 30.8165L108.752 28.1581L108.529 27.612ZM56.1762 26.028V28.0671H61.165C61.0161 29.2141 60.6252 30.0516 60.0294 30.6343C59.3037 31.3446 58.1681 32.1273 56.1762 32.1273C53.1046 32.1273 50.7034 29.7058 50.7034 26.7016C50.7034 23.6975 53.1046 21.2757 56.1762 21.2757C57.8331 21.2757 59.0428 21.9131 59.9364 22.7324L61.407 21.2942C60.1599 20.1287 58.5029 19.2366 56.1762 19.2366C51.969 19.2366 48.4321 22.5868 48.4321 26.7016C48.4321 30.8165 51.969 34.1665 56.1762 34.1665C58.4474 34.1665 60.1599 33.4385 61.5 32.0726C62.8776 30.7252 63.306 28.8318 63.306 27.3026C63.306 26.8288 63.2689 26.3922 63.194 26.028H56.1762ZM68.9778 32.273C67.4882 32.273 66.2037 31.0713 66.2037 29.3598C66.2037 27.6301 67.4882 26.4466 68.9778 26.4466C70.4667 26.4466 71.7513 27.6301 71.7513 29.3598C71.7513 31.0713 70.4667 32.273 68.9778 32.273ZM68.9778 24.5532C66.2596 24.5532 64.0443 26.5741 64.0443 29.3598C64.0443 32.1273 66.2596 34.1665 68.9778 34.1665C71.6954 34.1665 73.9106 32.1273 73.9106 29.3598C73.9106 26.5741 71.6954 24.5532 68.9778 24.5532ZM79.739 32.273C78.2501 32.273 76.9654 31.0713 76.9654 29.3598C76.9654 27.6301 78.2501 26.4466 79.7391 26.4466C81.2281 26.4466 82.5127 27.6301 82.5127 29.3598C82.5127 31.0713 81.2281 32.273 79.7391 32.273H79.739ZM79.739 24.5532C77.021 24.5532 74.8062 26.5741 74.8062 29.3598C74.8062 32.1273 77.021 34.1665 79.7391 34.1665C82.4568 34.1665 84.6721 32.1273 84.6721 29.3598C84.6721 26.5741 82.4568 24.5532 79.7391 24.5532H79.739Z" fill="black"/>
<path d="M13.1517 8.5739C12.7639 8.91608 12.5325 9.48683 12.5325 10.2444V10.0732V35.0734V34.9087C12.5325 35.6084 12.731 36.1487 13.0672 36.4967L13.1531 36.577V36.5774C13.4252 36.8176 13.7742 36.9451 14.1741 36.9447C14.5649 36.9447 15.0046 36.8229 15.4686 36.5656L32.2407 27.2449L38.0018 24.0429C38.7335 23.6364 39.1443 23.1119 39.2129 22.5777V22.5755C39.1443 22.04 38.7335 21.5159 38.0019 21.1094L32.2403 17.9078L15.4686 8.58711C15.0036 8.32934 14.5636 8.20703 14.1718 8.20703C13.7723 8.20703 13.4238 8.33416 13.1518 8.5739H13.1517Z" fill="#00C1FF"/>
<path d="M13.1531 36.5757L13.0672 36.4953C12.731 36.1474 12.5325 35.607 12.5325 34.9074V35.072V10.078V10.2431C12.5325 9.48548 12.7639 8.91473 13.1517 8.57255L27.468 22.5746L13.1531 36.5757Z" fill="url(#paint0_linear_446_921)"/>
<path d="M32.2405 27.2417L27.4678 22.5722L32.2401 17.9035L38.0017 21.1054C38.7333 21.5121 39.1441 22.0362 39.2127 22.5718V22.5739C39.1441 23.1082 38.7333 23.6328 38.0017 24.0393L32.2406 27.2416" fill="url(#paint1_linear_446_921)"/>
<path d="M14.1735 36.9429C13.7736 36.9432 13.4247 36.8156 13.1526 36.5754V36.5751L27.4675 22.5722L32.2402 27.2417L15.468 36.5636C15.004 36.821 14.5643 36.9429 14.1735 36.9429Z" fill="url(#paint2_linear_446_921)"/>
<path d="M27.4675 22.5737L13.1511 8.56996C13.4233 8.33019 13.7718 8.20304 14.1712 8.20304C14.563 8.20304 15.003 8.32531 15.468 8.58316L32.2397 17.905L27.4674 22.5737" fill="url(#paint3_linear_446_921)"/>
<path d="M14.1736 37.1089C13.7737 37.1089 13.4243 36.9813 13.1522 36.7411L13.1517 36.7415C13.1506 36.7404 13.1494 36.7394 13.1481 36.7385L13.0737 36.6673C13.0713 36.6651 13.0692 36.6625 13.0664 36.6599L13.1522 36.576C13.4244 36.8161 13.7733 36.9437 14.1733 36.9433C14.564 36.9433 15.0037 36.8215 15.4677 36.5641L32.2398 27.2422L32.3473 27.3474L32.2385 27.4078L15.4677 36.7292C15.0448 36.9637 14.6425 37.0859 14.2792 37.1063C14.2441 37.108 14.2088 37.1088 14.1736 37.1088" fill="url(#paint4_linear_446_921)"/>
<path d="M13.0676 36.6597C12.7311 36.3119 12.5325 35.7721 12.5325 35.0722V34.9076C12.5325 35.607 12.7311 36.1472 13.0676 36.4951L13.1535 36.5754L13.0676 36.6597Z" fill="url(#paint5_linear_446_921)"/>
<path d="M32.3482 27.3476L32.2407 27.2424L38.0018 24.0399C38.7335 23.6334 39.1443 23.1088 39.2129 22.5744C39.2129 22.7705 39.1682 22.9666 39.0794 23.1574C38.9001 23.5419 38.5409 23.9053 38.0019 24.2051L32.3482 27.3477" fill="url(#paint6_linear_446_921)"/>
<path d="M39.2129 22.5737C39.1443 22.0381 38.7335 21.514 38.0019 21.1073L32.2402 17.9052L32.3477 17.8H32.3482L38.0019 20.9426C38.8085 21.3912 39.2124 21.9824 39.2129 22.5737Z" fill="url(#paint7_linear_446_921)"/>
<path d="M12.5325 10.2441V10.0715C12.5325 10.0093 12.5342 9.94837 12.5375 9.88927V9.88657C12.5375 9.88576 12.5375 9.8849 12.5378 9.88399V9.87733C12.5726 9.27487 12.7641 8.80494 13.0676 8.49114L13.1521 8.57406C12.7641 8.91619 12.5325 9.48676 12.5325 10.2441Z" fill="url(#paint8_linear_446_921)"/>
<path d="M32.2394 17.9067L15.4677 8.58478C15.0027 8.32698 14.5628 8.20471 14.1709 8.20471C13.7715 8.20471 13.423 8.33185 13.1509 8.57162L13.0664 8.48862C13.0928 8.4613 13.1202 8.43495 13.1486 8.40963C13.1495 8.40871 13.1509 8.4078 13.1518 8.40693C13.4217 8.16899 13.7665 8.04185 14.1624 8.03956H14.1709C14.5628 8.03956 15.0027 8.16188 15.4677 8.41978L32.3473 17.8012L32.3468 17.8016L32.2394 17.9067Z" fill="url(#paint9_linear_446_921)"/>
<defs>
<linearGradient id="paint0_linear_446_921" x1="21.6814" y1="9.81385" x2="9.63787" y2="22.1672" gradientUnits="userSpaceOnUse">
<stop stop-color="#00A0FF"/>
<stop offset="0.00657" stop-color="#00A1FF"/>
<stop offset="0.2601" stop-color="#00BEFF"/>
<stop offset="0.5122" stop-color="#00D2FF"/>
<stop offset="0.7604" stop-color="#00DFFF"/>
<stop offset="1" stop-color="#00E3FF"/>
</linearGradient>
<linearGradient id="paint1_linear_446_921" x1="40.1042" y1="22.4915" x2="12.1448" y2="22.4915" gradientUnits="userSpaceOnUse">
<stop stop-color="#FFE000"/>
<stop offset="0.4087" stop-color="#FFBD00"/>
<stop offset="0.7754" stop-color="#FFA500"/>
<stop offset="1" stop-color="#FF9C00"/>
</linearGradient>
<linearGradient id="paint2_linear_446_921" x1="29.7063" y1="27.0118" x2="9.29142" y2="47.7962" gradientUnits="userSpaceOnUse">
<stop stop-color="#FF3A44"/>
<stop offset="1" stop-color="#C31162"/>
</linearGradient>
<linearGradient id="paint3_linear_446_921" x1="9.4614" y1="6.49383" x2="18.5595" y2="15.7709" gradientUnits="userSpaceOnUse">
<stop stop-color="#32A071"/>
<stop offset="0.0685" stop-color="#2DA771"/>
<stop offset="0.4762" stop-color="#15CF74"/>
<stop offset="0.8009" stop-color="#06E775"/>
<stop offset="1" stop-color="#00F076"/>
</linearGradient>
<linearGradient id="paint4_linear_446_921" x1="29.6955" y1="30.2513" x2="13.3491" y2="47.0162" gradientUnits="userSpaceOnUse">
<stop stop-color="#CC2E36"/>
<stop offset="1" stop-color="#9C0E4E"/>
</linearGradient>
<linearGradient id="paint5_linear_446_921" x1="14.4408" y1="9.82174" x2="3.83416" y2="20.7118" gradientUnits="userSpaceOnUse">
<stop stop-color="#008DE0"/>
<stop offset="0.00657" stop-color="#008DE0"/>
<stop offset="0.2601" stop-color="#00A7E0"/>
<stop offset="0.5122" stop-color="#00B8E0"/>
<stop offset="0.7604" stop-color="#00C4E0"/>
<stop offset="1" stop-color="#00C7E0"/>
</linearGradient>
<linearGradient id="paint6_linear_446_921" x1="40.1044" y1="22.5734" x2="12.145" y2="22.5734" gradientUnits="userSpaceOnUse">
<stop stop-color="#E0C500"/>
<stop offset="0.4087" stop-color="#E0A600"/>
<stop offset="0.7754" stop-color="#E09100"/>
<stop offset="1" stop-color="#E08900"/>
</linearGradient>
<linearGradient id="paint7_linear_446_921" x1="40.1044" y1="22.5748" x2="12.1451" y2="22.5748" gradientUnits="userSpaceOnUse">
<stop stop-color="#FFE840"/>
<stop offset="0.4087" stop-color="#FFCE40"/>
<stop offset="0.7754" stop-color="#FFBC40"/>
<stop offset="1" stop-color="#FFB540"/>
</linearGradient>
<linearGradient id="paint8_linear_446_921" x1="14.429" y1="9.83423" x2="4.20174" y2="19.8798" gradientUnits="userSpaceOnUse">
<stop stop-color="#40B8FF"/>
<stop offset="0.00657" stop-color="#40B9FF"/>
<stop offset="0.2601" stop-color="#40CEFF"/>
<stop offset="0.5122" stop-color="#40DDFF"/>
<stop offset="0.7604" stop-color="#40E7FF"/>
<stop offset="1" stop-color="#40EAFF"/>
</linearGradient>
<linearGradient id="paint9_linear_446_921" x1="9.44025" y1="9.45703" x2="16.7396" y2="16.9434" gradientUnits="userSpaceOnUse">
<stop stop-color="#65B895"/>
<stop offset="0.0685" stop-color="#62BD95"/>
<stop offset="0.4762" stop-color="#50DB97"/>
<stop offset="0.8009" stop-color="#44ED98"/>
<stop offset="1" stop-color="#40F498"/>
</linearGradient>
</defs>
</svg>
